<?xml version="1.0" encoding="UTF-8"?>
<svg version="1.1" xmlns="http://www.w3.org/2000/svg" width="512" height="512">
<path d="M0 0 C1.54982283 -0.00679667 1.54982283 -0.00679667 3.13095522 -0.01373065 C6.5626512 -0.02630147 9.99418699 -0.024759 13.42590332 -0.02310181 C15.89913129 -0.02909174 18.37235739 -0.03589836 20.84558105 -0.04345703 C26.84962104 -0.05925214 32.85359904 -0.06556354 38.85765404 -0.06668179 C43.7452013 -0.06763579 48.63273573 -0.07176359 53.52027893 -0.07808304 C67.41478044 -0.0956792 81.30925118 -0.10492481 95.2037639 -0.10342209 C96.32499245 -0.10330222 96.32499245 -0.10330222 97.46887207 -0.10317993 C98.59148968 -0.10305729 98.59148968 -0.10305729 99.73678643 -0.10293217 C111.84804204 -0.1021204 123.95917296 -0.12123482 136.07039255 -0.14945666 C148.54278823 -0.17828779 161.01512332 -0.19199127 173.48755312 -0.19026911 C180.47502699 -0.18960858 187.46237024 -0.19495119 194.44981384 -0.21662521 C201.02942331 -0.23690518 207.60880609 -0.23605959 214.18844604 -0.22159195 C216.58963933 -0.2195157 218.99085026 -0.22413318 221.39201355 -0.23631287 C238.81663057 -0.31890138 255.8456801 0.65237273 271.97473145 7.95492554 C272.75477539 8.29741333 273.53481934 8.63990112 274.33850098 8.99276733 C301.4769379 21.28822026 322.71144288 43.60796674 333.45568848 71.37142944 C337.95682062 83.45014135 340.47195763 95.21931822 340.42965698 108.11192322 C340.4341881 109.14584401 340.43871921 110.17976479 340.44338763 111.24501652 C340.45595849 114.67904645 340.45441599 118.11291629 340.45275879 121.54696655 C340.45874869 124.02181703 340.46555529 126.49666565 340.47311401 128.97151184 C340.48890874 134.97922682 340.49522048 140.98687986 340.49633877 146.99460984 C340.49729271 151.88454937 340.50142016 156.77447608 340.50774002 161.66441154 C340.52533532 175.56397871 340.53458181 189.46351512 340.53307907 203.3630935 C340.53299916 204.11084192 340.53291925 204.85859034 340.53283691 205.6289978 C340.53275515 206.37767185 340.53267339 207.1263459 340.53258915 207.89770704 C340.53177719 220.01610469 340.55089658 232.13437778 340.57911365 244.25273944 C340.60793614 256.73078035 340.62164875 269.20876071 340.6199261 281.68683571 C340.61926532 288.67819005 340.62461921 295.66941387 340.6462822 302.66073799 C340.66654814 309.24280669 340.66572526 315.82464868 340.65124893 322.40674782 C340.64917116 324.8099737 340.65379944 327.21321716 340.66596985 329.61641312 C340.80723471 359.4662189 334.07533622 386.30833916 314.16223145 409.26742554 C313.49836426 410.07566772 312.83449707 410.88390991 312.1505127 411.71664429 C300.09898469 425.90670591 284.04766589 436.33223992 266.59973145 442.64242554 C265.97671143 442.86905884 265.35369141 443.09569214 264.71179199 443.32919312 C249.37099616 448.49328681 234.45332334 448.70501389 218.42858887 448.67147827 C215.95314731 448.67718979 213.47770839 448.68415706 211.00227356 448.692276 C205.00844295 448.70828759 199.01476339 448.71032544 193.0209262 448.7050631 C188.14251887 448.70100059 183.26414235 448.70248946 178.38573647 448.70781136 C177.68802407 448.70855978 176.99031168 448.7093082 176.27145648 448.7100793 C174.85346465 448.71161098 173.43547283 448.71314933 172.01748101 448.71469427 C158.75731604 448.72838246 145.49721027 448.72300781 132.2370467 448.71150906 C120.14476405 448.70158246 108.05263455 448.71451395 95.96037551 448.73844325 C83.50028112 448.76291189 71.04025783 448.77242301 58.58013994 448.76579052 C51.60226729 448.76231523 44.62451223 448.76441748 37.64665794 448.78204155 C31.08093925 448.79842105 24.51546332 448.79346191 17.94973564 448.7747364 C15.55296125 448.77107366 13.15616491 448.7740906 10.75941086 448.78462219 C-19.06647449 448.90558052 -45.89815916 442.16363733 -68.83776855 422.26742554 C-69.64601074 421.60355835 -70.45425293 420.93969116 -71.2869873 420.25570679 C-85.47704893 408.20417878 -95.90258294 392.15285999 -102.21276855 374.70492554 C-102.43940186 374.08190552 -102.66603516 373.4588855 -102.89953613 372.81698608 C-108.06191581 357.48128204 -108.27536863 342.56905004 -108.24182129 326.5496521 C-108.24753285 324.07583306 -108.25450013 321.60201665 -108.26261902 319.12820435 C-108.27863097 313.13804871 -108.28066828 307.14804422 -108.27540611 301.157882 C-108.27134331 296.28186694 -108.27283283 291.4058827 -108.27815437 286.52986908 C-108.2789028 285.83244541 -108.27965122 285.13502174 -108.28042232 284.41646402 C-108.28195401 282.99903791 -108.28349236 281.58161182 -108.28503729 280.16418573 C-108.29872591 266.90875939 -108.29335076 253.65339226 -108.28185207 240.39796731 C-108.27192777 228.3128267 -108.28485293 216.22783937 -108.30878627 204.1427224 C-108.33326225 191.68827324 -108.3427641 179.23389521 -108.33613354 166.77942252 C-108.33265956 159.80543036 -108.33475149 152.83155586 -108.35238457 145.85758209 C-108.36877543 139.29432265 -108.36379365 132.73130588 -108.34507942 126.16803741 C-108.34141936 123.77329561 -108.34442557 121.37853183 -108.35496521 118.98381042 C-108.42564615 101.58200689 -107.44286205 84.56197989 -100.15026855 68.45492554 C-99.63653687 67.28485962 -99.63653687 67.28485962 -99.11242676 66.09115601 C-86.81697383 38.95271908 -64.49722735 17.7182141 -36.73376465 6.97396851 C-24.65769108 2.47381953 -12.88988959 -0.04232232 0 0 Z M-56.14245605 59.66586304 C-74.5505871 81.22558072 -76.15384753 107.39018127 -76.09655762 134.49008179 C-76.09927415 136.67187618 -76.10283877 138.85366966 -76.10717773 141.03546143 C-76.11622529 146.91146508 -76.11278925 152.7873978 -76.10641956 158.66340256 C-76.10131975 164.84269131 -76.106062 171.02197441 -76.10919189 177.20126343 C-76.11282001 187.57391438 -76.10806284 197.94653675 -76.09851074 208.31918335 C-76.08762845 220.27356666 -76.09115484 232.22788172 -76.10216355 244.18226337 C-76.11126943 254.48682644 -76.11250562 264.79136908 -76.10728621 275.09593487 C-76.10418461 281.23254704 -76.10370701 287.36912725 -76.11035919 293.5057373 C-76.11618025 299.27774337 -76.11204955 305.04966233 -76.10057068 310.82165909 C-76.09794936 312.92698142 -76.09864531 315.03231121 -76.10309601 317.13763046 C-76.15748526 345.50292673 -72.79651742 371.57470588 -52.32946777 392.79476929 C-30.68520806 414.1627193 -4.03629879 416.42055413 24.90319824 416.41268921 C27.10543372 416.41568487 29.30766868 416.41908833 31.50990295 416.42286682 C37.46881633 416.43166991 43.42771533 416.43404339 49.38663459 416.43468261 C53.116424 416.43539524 56.8462098 416.43753359 60.57599831 416.44017982 C72.93624103 416.44894514 85.29647613 416.45360105 97.65672185 416.45284935 C98.32135984 416.45280939 98.98599783 416.45276944 99.67077637 416.45272827 C100.66896855 416.45266695 100.66896855 416.45266695 101.68732623 416.45260439 C112.46199903 416.45219829 123.23663683 416.46176175 134.01129951 416.47586664 C145.10844829 416.49027758 156.20558267 416.49695167 167.30274135 416.49627286 C173.51934015 416.49601885 179.73589931 416.49881653 185.95248985 416.50945091 C191.80402116 416.51918826 197.65547536 416.51917269 203.50700951 416.51193428 C205.643388 416.5108954 207.77977143 416.51320948 209.91614151 416.51929474 C237.99133757 416.59402672 263.702353 413.00159578 284.6895752 392.75912476 C306.29784643 370.87143622 308.31553718 343.85763028 308.30749512 314.61239624 C308.31049145 312.43133996 308.31389506 310.2502842 308.31767273 308.06922913 C308.32646882 302.17228928 308.32884899 296.27536398 308.32948852 290.37841821 C308.33020153 286.68630528 308.3323406 282.99419599 308.33498573 279.30208397 C308.34422472 266.39900861 308.34832245 253.49594355 308.34753418 240.59286499 C308.34693382 228.60166529 308.35748116 216.6105209 308.37327784 204.6193307 C308.38639143 194.29364096 308.39171647 183.96796588 308.39107877 173.64226788 C308.3908249 167.48880914 308.39361448 161.33539046 308.40425682 155.18194008 C308.41400225 149.38948803 308.41397317 143.59711383 308.40674019 137.80465889 C308.40570231 135.69127538 308.40800928 133.57788686 308.41410065 131.46451187 C308.49409118 101.76419362 304.42610977 76.28214702 283.16223145 54.26742554 C261.97950348 33.61781992 235.30925109 32.11458271 207.42126465 32.12216187 C205.21902917 32.11916621 203.01679421 32.11576275 200.81455994 32.11198425 C194.85564656 32.10318117 188.89674756 32.10080769 182.9378283 32.10016847 C179.20803889 32.09945584 175.47825309 32.09731748 171.74846458 32.09467125 C159.38822186 32.08590594 147.02798676 32.08125002 134.66774104 32.08200172 C134.00310305 32.08204168 133.33846506 32.08208164 132.65368652 32.0821228 C131.65549434 32.08218412 131.65549434 32.08218412 130.63713666 32.08224668 C119.86246386 32.08265278 109.08782606 32.07308933 98.31316338 32.05898444 C87.2160146 32.04457349 76.11888022 32.03789941 65.02172154 32.03857821 C58.80512274 32.03883223 52.58856358 32.03603454 46.37197304 32.02540016 C40.52044174 32.01566281 34.66898753 32.01567839 28.81745338 32.02291679 C26.68107489 32.02395568 24.54469146 32.0216416 22.40832138 32.01555634 C-8.24064842 31.93397335 -34.22927027 36.86129343 -56.14245605 59.66586304 Z " fill="#000000" transform="translate(139.8377685546875,31.732574462890625)"/>
<path d="M0 0 C4.97447267 2.3095766 7.31899945 5.280301 10 10 C10.48101807 13.3789978 10.48101807 13.3789978 10.45410156 17.10693359 C10.45468567 17.79055969 10.45526978 18.47418579 10.45587158 19.17852783 C10.45310371 21.41902975 10.42207681 23.65817051 10.390625 25.8984375 C10.38315791 27.45927199 10.37746719 29.02011589 10.37347412 30.58096313 C10.35825441 34.67468478 10.31900507 38.76783222 10.2746582 42.86132812 C10.23362584 47.04419183 10.21544617 51.22714898 10.1953125 55.41015625 C10.15250648 63.60703335 10.08430054 71.8034451 10 80 C10.86364166 79.99111755 11.72728333 79.98223511 12.61709595 79.9730835 C20.7679158 79.89283661 28.91860241 79.83198435 37.06972694 79.79275131 C41.26003538 79.77190282 45.45001659 79.74363584 49.64013672 79.69824219 C53.68612242 79.65468581 57.73179395 79.6308423 61.77799606 79.62049103 C63.31934935 79.61311714 64.86068602 79.59871743 66.40190506 79.57707977 C68.56599936 79.54791389 70.72880625 79.54404924 72.89306641 79.54589844 C74.12328522 79.53701599 75.35350403 79.52813354 76.6210022 79.51898193 C81.79530458 80.25557103 84.84228406 82.78135165 88.375 86.5 C90.77303575 91.66500009 90.75381535 96.4002288 90 102 C87.6904234 106.97447267 84.719699 109.31899945 80 112 C76.6210022 112.48101807 76.6210022 112.48101807 72.89306641 112.45410156 C72.20944031 112.45468567 71.52581421 112.45526978 70.82147217 112.45587158 C68.58097025 112.45310371 66.34182949 112.42207681 64.1015625 112.390625 C62.54072801 112.38315791 60.97988411 112.37746719 59.41903687 112.37347412 C55.32531522 112.35825441 51.23216778 112.31900507 47.13867188 112.2746582 C42.95580817 112.23362584 38.77285102 112.21544617 34.58984375 112.1953125 C26.39296665 112.15250648 18.1965549 112.08430054 10 112 C10.00888245 112.86364166 10.01776489 113.72728333 10.0269165 114.61709595 C10.10716339 122.7679158 10.16801565 130.91860241 10.20724869 139.06972694 C10.22809718 143.26003538 10.25636416 147.45001659 10.30175781 151.64013672 C10.34531419 155.68612242 10.3691577 159.73179395 10.37950897 163.77799606 C10.38688286 165.31934935 10.40128257 166.86068602 10.42292023 168.40190506 C10.45208611 170.56599936 10.45595076 172.72880625 10.45410156 174.89306641 C10.46298401 176.12328522 10.47186646 177.35350403 10.48101807 178.6210022 C9.74442897 183.79530458 7.21864835 186.84228406 3.5 190.375 C-1.66500009 192.77303575 -6.4002288 192.75381535 -12 192 C-16.97447267 189.6904234 -19.31899945 186.719699 -22 182 C-22.48101807 178.6210022 -22.48101807 178.6210022 -22.45410156 174.89306641 C-22.45468567 174.20944031 -22.45526978 173.52581421 -22.45587158 172.82147217 C-22.45310371 170.58097025 -22.42207681 168.34182949 -22.390625 166.1015625 C-22.38315791 164.54072801 -22.37746719 162.97988411 -22.37347412 161.41903687 C-22.35825441 157.32531522 -22.31900507 153.23216778 -22.2746582 149.13867188 C-22.23362584 144.95580817 -22.21544617 140.77285102 -22.1953125 136.58984375 C-22.15250648 128.39296665 -22.08430054 120.1965549 -22 112 C-22.86364166 112.00888245 -23.72728333 112.01776489 -24.61709595 112.0269165 C-32.7679158 112.10716339 -40.91860241 112.16801565 -49.06972694 112.20724869 C-53.26003538 112.22809718 -57.45001659 112.25636416 -61.64013672 112.30175781 C-65.68612242 112.34531419 -69.73179395 112.3691577 -73.77799606 112.37950897 C-75.31934935 112.38688286 -76.86068602 112.40128257 -78.40190506 112.42292023 C-80.56599936 112.45208611 -82.72880625 112.45595076 -84.89306641 112.45410156 C-86.12328522 112.46298401 -87.35350403 112.47186646 -88.6210022 112.48101807 C-93.79530458 111.74442897 -96.84228406 109.21864835 -100.375 105.5 C-102.77303575 100.33499991 -102.75381535 95.5997712 -102 90 C-99.6904234 85.02552733 -96.719699 82.68100055 -92 80 C-88.6210022 79.51898193 -88.6210022 79.51898193 -84.89306641 79.54589844 C-84.20944031 79.54531433 -83.52581421 79.54473022 -82.82147217 79.54412842 C-80.58097025 79.54689629 -78.34182949 79.57792319 -76.1015625 79.609375 C-74.54072801 79.61684209 -72.97988411 79.62253281 -71.41903687 79.62652588 C-67.32531522 79.64174559 -63.23216778 79.68099493 -59.13867188 79.7253418 C-54.95580817 79.76637416 -50.77285102 79.78455383 -46.58984375 79.8046875 C-38.39296665 79.84749352 -30.1965549 79.91569946 -22 80 C-22.00888245 79.13635834 -22.01776489 78.27271667 -22.0269165 77.38290405 C-22.10716339 69.2320842 -22.16801565 61.08139759 -22.20724869 52.93027306 C-22.22809718 48.73996462 -22.25636416 44.54998341 -22.30175781 40.35986328 C-22.34531419 36.31387758 -22.3691577 32.26820605 -22.37950897 28.22200394 C-22.38688286 26.68065065 -22.40128257 25.13931398 -22.42292023 23.59809494 C-22.45208611 21.43400064 -22.45595076 19.27119375 -22.45410156 17.10693359 C-22.46298401 15.87671478 -22.47186646 14.64649597 -22.48101807 13.3789978 C-21.74442897 8.20469542 -19.21864835 5.15771594 -15.5 1.625 C-10.33499991 -0.77303575 -5.5997712 -0.75381535 0 0 Z " fill="#000000" transform="translate(262,160)"/>
</svg>
