<?xml version="1.0" encoding="UTF-8"?>
<svg version="1.1" xmlns="http://www.w3.org/2000/svg" width="512" height="512">
<path d="M0 0 C1.27882903 -0.00445784 2.55765806 -0.00891569 3.87523949 -0.01350862 C5.30261367 -0.01341932 6.72998784 -0.01322946 8.15736198 -0.01294994 C9.66733961 -0.01624848 11.17731636 -0.01997402 12.68729198 -0.02409142 C16.84751733 -0.03412085 21.00772825 -0.03782973 25.16796398 -0.04048073 C29.6507491 -0.04438102 34.13352277 -0.05395958 38.61630058 -0.0626936 C49.44796264 -0.08246632 60.27962565 -0.09252547 71.11130124 -0.10142139 C76.21066907 -0.10580316 81.31003585 -0.11117028 86.40940285 -0.11641026 C103.3586264 -0.13342372 120.3078493 -0.14791806 137.25708008 -0.155159 C141.6566105 -0.15706893 146.05614091 -0.15898926 150.45567131 -0.16094494 C151.54916963 -0.16142868 152.64266796 -0.16191242 153.76930259 -0.16241082 C171.48457986 -0.1707117 189.19978962 -0.19604907 206.91503741 -0.22852562 C225.09820674 -0.26158849 243.28134176 -0.27960708 261.46454132 -0.28280324 C271.67561775 -0.2849691 281.88659574 -0.2937289 292.0976429 -0.31926441 C300.79371534 -0.3409609 309.48966544 -0.34902702 318.18576188 -0.33929763 C322.62232713 -0.33474982 327.0586399 -0.33666706 331.49517059 -0.35605907 C335.55919474 -0.37366934 339.62278183 -0.37271054 343.68681048 -0.35716178 C345.15457505 -0.35478244 346.62236971 -0.35912624 348.09008826 -0.37099043 C359.43606741 -0.45700075 367.67922228 1.08077086 375.92442131 9.13422108 C380.82267203 15.52915952 382.22610613 21.23812541 382.18169022 29.18753242 C382.18519629 29.98529475 382.18870237 30.78305708 382.19231468 31.60499403 C382.20163133 34.28279999 382.19670468 36.9603886 382.19184685 39.63820362 C382.19558297 41.57562569 382.20018434 43.51304626 382.20557749 45.45046443 C382.21782754 50.77828974 382.21754466 56.10605236 382.21518874 61.43388855 C382.21478108 67.17839506 382.22581482 72.92288132 382.23530388 78.66737843 C382.25192567 89.92326123 382.25741395 101.17912309 382.25852863 112.43501715 C382.25947852 121.58287482 382.26358581 130.73072557 382.26992989 139.87858105 C382.28467825 161.58634452 382.29697928 183.29410205 382.29593277 205.00187111 C382.29588603 206.043203 382.29588603 206.043203 382.29583835 207.1055719 C382.29567214 210.62417344 382.29547406 214.14277498 382.29526894 217.66137651 C382.29522905 218.36018334 382.29518916 219.05899017 382.29514806 219.77897296 C382.29506718 221.19213062 382.29498359 222.60528827 382.29489728 224.01844593 C382.29367174 246.00538766 382.30868546 267.9922677 382.3360424 289.97919178 C382.36676521 314.68145429 382.38394945 339.38367473 382.38211596 364.08595771 C382.38145153 377.16531977 382.38696732 390.24461226 382.40847206 403.3239584 C382.42666282 414.45919974 382.43104845 425.59433998 382.41745321 436.72958974 C382.41091308 442.41168986 382.41084426 448.0935959 382.42815971 453.77567768 C382.44384893 458.97756714 382.44106913 464.17910794 382.42359145 469.38098868 C382.42051242 471.26251979 382.4241878 473.14407666 382.4353116 475.0255774 C382.50338651 487.35689888 381.89694966 496.9480611 372.92442131 506.13422108 C367.07437393 510.61510843 361.8246802 512.38134565 354.48249245 512.39428329 C353.19830697 512.40134889 351.91412149 512.40841448 350.5910213 512.41569418 C349.17316263 512.41344301 347.75530425 512.41099654 346.33744621 512.40837574 C344.82559038 512.41282956 343.31373688 512.41814408 341.8018868 512.42424446 C337.65035342 512.43841751 333.49889493 512.44008789 329.34734082 512.43964756 C324.86866983 512.44129636 320.39002964 512.45436404 315.91137505 512.46584034 C306.12004929 512.48868397 296.32874522 512.49661017 286.53739643 512.50166678 C280.42284319 512.50492435 274.30829625 512.51144716 268.19374657 512.51866817 C251.26155996 512.53823277 234.3293792 512.55463797 217.39718056 512.55754471 C216.31379357 512.55773228 215.23040659 512.55791985 214.1141897 512.5581131 C211.91794125 512.55847935 209.72169281 512.55884305 207.52544436 512.55920421 C206.43523664 512.55938702 205.34502891 512.55956984 204.22178459 512.55975819 C203.13024508 512.55993874 202.03870558 512.56011928 200.91408911 512.5603053 C183.22552193 512.56384728 165.53707645 512.5908718 147.84855148 512.62825608 C129.68448739 512.66633797 111.5204837 512.68570217 93.35637879 512.68600422 C83.15926966 512.68658879 72.96230575 512.69508086 62.76523399 512.72400188 C54.08277919 512.74851408 45.40052258 512.75579968 36.71804252 512.74075436 C32.28938418 512.73358498 27.86111722 512.73444404 23.43250275 512.75716496 C19.37462529 512.7777841 15.3174394 512.77512765 11.2595692 512.75429011 C9.79524133 512.75080081 8.33086327 512.75568159 6.8666012 512.76999455 C-2.88358722 512.85912385 -10.82627589 511.99716456 -18.20948529 505.15737432 C-25.3666981 497.62491898 -27.24888455 489.62896372 -27.17323494 479.42718983 C-27.17181999 478.70179508 -27.17040504 477.97640034 -27.16894722 477.22902393 C-27.163378 474.92654658 -27.1508313 472.62416873 -27.13807869 470.32172108 C-27.13305971 468.7546652 -27.1284975 467.18760778 -27.12440681 465.6205492 C-27.11341867 461.79173519 -27.09617542 457.96299497 -27.07557869 454.13422108 C-27.75612312 454.15597401 -28.43666756 454.17772694 -29.13783455 454.20013905 C-30.03381355 454.21705799 -30.92979256 454.23397694 -31.85292244 454.25140858 C-32.73971687 454.27316151 -33.62651131 454.29491444 -34.5401783 454.31732655 C-38.42352868 454.03687274 -40.17352763 452.66421431 -43.07557869 450.13422108 C-44.37940033 447.5265778 -44.22414117 445.5825728 -44.25258064 442.66229725 C-44.26541588 441.51738316 -44.27825111 440.37246906 -44.2914753 439.1928606 C-44.29886223 437.95018925 -44.30624916 436.70751789 -44.31385994 435.42718983 C-44.32596756 433.51816631 -44.32596756 433.51816631 -44.33831978 431.57057667 C-44.35217096 428.87292296 -44.3631843 426.17539189 -44.37074471 423.47772694 C-44.38180138 420.02753858 -44.41619205 416.57799659 -44.4559164 413.1280365 C-44.48839842 409.83198508 -44.49286304 406.53587691 -44.50135994 403.23968983 C-44.51886803 402.00309116 -44.53637611 400.7664925 -44.55441475 399.49242115 C-44.55148918 398.33805058 -44.54856361 397.18368 -44.54554939 395.9943285 C-44.55141563 394.9811002 -44.55728188 393.96787189 -44.56332588 392.9239397 C-43.94416761 389.38260232 -42.53189602 387.70847254 -40.07557869 385.13422108 C-38.07557869 384.13422108 -38.07557869 384.13422108 -27.07557869 384.13422108 C-27.07557869 371.26422108 -27.07557869 358.39422108 -27.07557869 345.13422108 C-30.70557869 345.13422108 -34.33557869 345.13422108 -38.07557869 345.13422108 C-41.07755333 343.3330363 -42.52724235 342.23089375 -44.07557869 339.13422108 C-44.19195053 337.31282759 -44.24523177 335.48725685 -44.26844978 333.66229725 C-44.28451271 332.51738316 -44.30057564 331.37246906 -44.31712532 330.1928606 C-44.36148816 324.95450057 -44.40307969 319.7162282 -44.42567635 314.47772694 C-44.43901138 311.71209065 -44.46685423 308.947193 -44.5077076 306.1818285 C-44.56651345 302.20113576 -44.58433751 298.22080212 -44.59901619 294.23968983 C-44.62168556 293.00309116 -44.64435493 291.7664925 -44.66771126 290.49242115 C-44.64414122 280.94567991 -44.64414122 280.94567991 -41.73036385 277.87762928 C-36.37262392 274.35917969 -34.33042219 275.13422108 -27.07557869 275.13422108 C-27.07557869 262.59422108 -27.07557869 250.05422108 -27.07557869 237.13422108 C-30.04557869 237.13422108 -33.01557869 237.13422108 -36.07557869 237.13422108 C-40.14220531 235.58150909 -41.65077471 234.77142705 -44.07557869 231.13422108 C-44.34300423 228.60519886 -44.34300423 228.60519886 -44.36610603 225.54877186 C-44.37886574 224.4039333 -44.39162544 223.25909473 -44.4047718 222.07956409 C-44.40699745 220.84205402 -44.4092231 219.60454395 -44.41151619 218.32953358 C-44.41817299 217.05826618 -44.42482979 215.78699879 -44.43168831 214.47720814 C-44.44182323 211.78542571 -44.44736925 209.09404706 -44.44618416 206.40228748 C-44.44598108 202.95992562 -44.47326987 199.51839041 -44.50772858 196.07622433 C-44.53537123 192.78569188 -44.53414757 189.49516638 -44.53651619 186.20453358 C-44.55088722 184.97107197 -44.56525826 183.73761036 -44.58006477 182.46677113 C-44.57391151 181.31562824 -44.56775826 180.16448536 -44.56141853 178.97845936 C-44.56426857 177.96824726 -44.56711861 176.95803516 -44.57005501 175.91721058 C-43.94235981 172.38444454 -42.52619402 170.70487325 -40.07557869 168.13422108 C-38.07557869 167.13422108 -38.07557869 167.13422108 -27.07557869 167.13422108 C-27.07557869 154.26422108 -27.07557869 141.39422108 -27.07557869 128.13422108 C-30.70557869 128.13422108 -34.33557869 128.13422108 -38.07557869 128.13422108 C-41.07755333 126.3330363 -42.52724235 125.23089375 -44.07557869 122.13422108 C-44.19195053 120.31282759 -44.24523177 118.48725685 -44.26844978 116.66229725 C-44.28451271 115.51738316 -44.30057564 114.37246906 -44.31712532 113.1928606 C-44.36148816 107.95450057 -44.40307969 102.7162282 -44.42567635 97.47772694 C-44.43901138 94.71209065 -44.46685423 91.947193 -44.5077076 89.1818285 C-44.56651345 85.20113576 -44.58433751 81.22080212 -44.59901619 77.23968983 C-44.62168556 76.00309116 -44.64435493 74.7664925 -44.66771126 73.49242115 C-44.64414456 63.94703406 -44.64414456 63.94703406 -41.66786385 60.87762928 C-38.03644322 58.43536381 -36.29006067 58.01608669 -31.95057869 58.07172108 C-31.04050056 58.08074451 -30.13042244 58.08976795 -29.19276619 58.09906483 C-28.49409431 58.11066639 -27.79542244 58.12226795 -27.07557869 58.13422108 C-27.09128914 57.18692127 -27.10699959 56.23962147 -27.12318611 55.26361561 C-27.1747237 51.70382534 -27.21212544 48.14443925 -27.24037361 44.58441639 C-27.25533613 43.05212564 -27.27571366 41.51987679 -27.30189705 39.9877367 C-27.49135556 28.60536648 -27.37485629 18.20419315 -19.89198494 8.95843983 C-14.08067744 3.12213746 -8.22695586 0.01327015 0 0 Z M-4.07557869 23.13422108 C-6.71908602 26.50798429 -6.30493348 30.15293644 -6.27089119 34.30609608 C-6.26664635 35.32972248 -6.26664635 35.32972248 -6.26231575 36.37402821 C-6.25115967 38.54427415 -6.22606426 40.71410079 -6.20057869 42.88422108 C-6.19054295 44.35947551 -6.18141813 45.83473645 -6.17323494 47.31000233 C-6.15123556 50.9182105 -6.11673752 54.52617483 -6.07557869 58.13422108 C-4.70623177 58.16395008 -4.70623177 58.16395008 -3.30922127 58.19427967 C0.09224603 58.27258372 3.49328735 58.35928333 6.89439201 58.45160389 C8.36370993 58.4897806 9.83311771 58.5246529 11.30259514 58.55609608 C13.42035245 58.60199397 15.53749721 58.65994479 17.65489006 58.72015858 C19.56370964 58.76728992 19.56370964 58.76728992 21.51109123 58.81537342 C24.79442594 59.12207789 27.07550864 59.47997115 29.92442131 61.13422108 C31.05867942 64.28700722 31.05666836 67.33981973 31.06968498 70.66547108 C31.07606483 71.7734203 31.08244469 72.88136951 31.08901787 74.02289295 C31.09013069 75.21463123 31.09124352 76.40636951 31.09239006 77.63422108 C31.09738266 79.47596912 31.09738266 79.47596912 31.10247612 81.3549242 C31.10753811 83.95062352 31.10988467 86.54632933 31.10972404 89.14203358 C31.11191277 93.11870454 31.13008267 97.09509912 31.14903069 101.07172108 C31.15196426 103.59255346 31.1539493 106.11338716 31.15489006 108.63422108 C31.16207558 109.82595936 31.16926109 111.01769764 31.17666435 112.2455492 C31.17358772 113.35349842 31.17051109 114.46144764 31.16734123 115.60297108 C31.16876625 116.5768578 31.17019127 117.55074451 31.17165947 118.55414295 C30.91357881 121.24736907 30.35770717 122.85751065 28.92442131 125.13422108 C25.484673 127.64541765 21.9009652 127.44627328 17.75254631 127.54828358 C15.87937737 127.6016991 15.87937737 127.6016991 13.96836662 127.65619373 C12.38636467 127.69019276 10.80436272 127.72419178 9.17442131 127.75922108 C4.14192131 127.88297108 -0.89057869 128.00672108 -6.07557869 128.13422108 C-6.07557869 141.00422108 -6.07557869 153.87422108 -6.07557869 167.13422108 C4.2302353 167.26502554 4.2302353 167.26502554 14.53648186 167.34198475 C15.82336906 167.37010242 17.11025627 167.3982201 18.43614006 167.42718983 C19.75058098 167.44290028 21.0650219 167.45861073 22.41929436 167.47479725 C25.92442131 168.13422108 25.92442131 168.13422108 28.85313225 169.87958241 C32.10807579 174.99411003 31.61866743 179.975375 31.55332756 185.91547108 C31.55573952 187.16171253 31.55815147 188.40795399 31.56063652 189.69196033 C31.55940742 192.99815232 31.53437289 196.3031515 31.50089836 199.60913563 C31.48693261 201.63258433 31.49050137 203.65519278 31.50083733 205.67865467 C31.51960973 209.57048336 31.5101847 213.46116303 31.49082756 217.35297108 C31.49578743 218.5582848 31.5007473 219.76359852 31.50585747 221.0054369 C31.38876693 229.32098743 31.38876693 229.32098743 29.07652092 233.3705492 C25.29189706 236.47209461 21.80534044 236.31073401 17.06895256 236.45062733 C15.85828117 236.48873524 14.64760979 236.52684315 13.40025139 236.56610584 C11.86135246 236.60920887 10.32245354 236.6523119 8.73692131 236.69672108 C1.40473381 236.91328358 1.40473381 236.91328358 -6.07557869 237.13422108 C-6.07557869 249.67422108 -6.07557869 262.21422108 -6.07557869 275.13422108 C3.57195159 275.34396212 3.57195159 275.34396212 13.22007561 275.52216053 C14.42575188 275.55527332 15.63142815 275.58838612 16.87364006 275.62250233 C18.71961784 275.66177845 18.71961784 275.66177845 20.60288811 275.70184803 C24.17920016 276.16738634 26.06849169 276.96969009 28.92442131 279.13422108 C31.16940611 282.50169828 31.18844907 283.68218782 31.23081779 287.62787342 C31.24680519 288.75269123 31.26279259 289.87750904 31.27926445 291.03641224 C31.28462715 292.25204853 31.28998985 293.46768482 31.29551506 294.72015858 C31.30905777 296.5937656 31.30905777 296.5937656 31.32287407 298.50522327 C31.33739477 301.14993165 31.34706288 303.79420753 31.34995842 306.43890858 C31.35534005 309.82090655 31.39301001 313.20170876 31.43870258 316.58336926 C31.47567541 319.81639453 31.47698951 323.04945029 31.48301506 326.28265858 C31.50254738 327.49424641 31.5220797 328.70583424 31.5422039 329.95413685 C31.49773491 338.23023298 31.49773491 338.23023298 28.85752678 342.39325428 C25.16814259 344.583116 22.71887232 344.79006429 18.43614006 344.84125233 C17.14925285 344.86937 15.86236565 344.89748768 14.53648186 344.92645741 C12.91137688 344.93314442 11.2862719 344.93983143 9.61192131 344.94672108 C4.43504631 345.00859608 -0.74182869 345.07047108 -6.07557869 345.13422108 C-6.07557869 358.00422108 -6.07557869 370.87422108 -6.07557869 384.13422108 C3.94615555 384.38358222 3.94615555 384.38358222 13.96836662 384.61224842 C15.21714592 384.64785877 16.46592522 384.68346912 17.75254631 384.72015858 C19.03032951 384.75157948 20.30811272 384.78300037 21.62461662 384.81537342 C24.70690547 385.11320334 26.44666124 385.32532635 28.92442131 387.13422108 C30.95436391 390.35869403 31.17286041 392.89354989 31.16734123 396.66547108 C31.17195618 398.32739491 31.17195618 398.32739491 31.17666435 400.02289295 C31.16947884 401.21463123 31.16229332 402.40636951 31.15489006 403.63422108 C31.15443184 404.86205311 31.15397362 406.08988514 31.15350151 407.3549242 C31.15048079 409.95063716 31.14259991 412.54634833 31.13023186 415.14203358 C31.11199268 419.11866131 31.1097221 423.09505591 31.10996819 427.07172108 C31.10505219 429.59255643 31.09922351 432.1133902 31.09239006 434.63422108 C31.09127724 435.82595936 31.09016441 437.01769764 31.08901787 438.2455492 C31.08263802 439.35349842 31.07625816 440.46144764 31.06968498 441.60297108 C31.06396729 443.06380116 31.06396729 443.06380116 31.05813408 444.55414295 C30.93507527 446.92864581 30.72861578 448.8988805 29.92442131 451.13422108 C25.98730742 453.42034604 22.13175467 453.43774371 17.65489006 453.54828358 C16.63338608 453.5773328 16.63338608 453.5773328 15.59124565 453.60696888 C13.43159538 453.6664024 11.27189074 453.71300308 9.11192131 453.75922108 C7.64119588 453.79743435 6.17049202 453.83648801 4.69981194 453.87640858 C1.10821342 453.9720729 -2.48354782 454.05623682 -6.07557869 454.13422108 C-6.14997999 458.45750912 -6.20429837 462.78045363 -6.24037361 467.10419178 C-6.25541935 468.5736589 -6.27586107 470.04308142 -6.30189705 471.51239491 C-6.33846824 473.62993877 -6.3553467 475.74688673 -6.36854744 477.86468983 C-6.38425789 479.13723621 -6.39996834 480.4097826 -6.41615486 481.720891 C-6.04444341 485.44626575 -5.45185225 487.25934719 -3.07557869 490.13422108 C13.95774452 496.94755036 33.57897077 492.13422108 51.92442131 492.13422108 C51.92442131 336.37422108 51.92442131 180.61422108 51.92442131 20.13422108 C22.93766218 17.45424234 22.93766218 17.45424234 -4.07557869 23.13422108 Z M72.92442131 20.13422108 C72.92442131 175.89422108 72.92442131 331.65422108 72.92442131 492.13422108 C119.16567131 492.19609608 165.40692131 492.25797108 213.04942131 492.32172108 C234.97274895 492.36268909 234.97274895 492.36268909 257.33897209 492.40448475 C270.40902413 492.41451635 270.40902413 492.41451635 283.47907829 492.42055225 C289.31301802 492.42335386 295.14687191 492.43437524 300.98078728 492.45094776 C307.70681112 492.47002632 314.4327524 492.47873301 321.15880352 492.47455593 C324.60044933 492.47274644 328.04191058 492.47564156 331.48352265 492.49186647 C335.16751605 492.50672981 338.85104404 492.50321257 342.53504753 492.49498463 C343.6106185 492.50372262 344.68618946 492.51246061 345.79435349 492.52146339 C351.22929535 492.48871072 355.27560571 492.30332764 359.92442131 489.13422108 C361.43421708 486.11462953 361.06532971 482.99617713 361.05864239 479.68407345 C361.06217073 478.51236653 361.06217073 478.51236653 361.06577036 477.31698877 C361.07248339 474.6717528 361.07200145 472.0265657 361.07159233 469.38132191 C361.07488951 467.47678803 361.07861477 465.57225486 361.08273381 463.66772258 C361.0927783 458.41243558 361.09647452 453.15716001 361.09912312 447.90186477 C361.10301886 442.24259722 361.1125976 436.58333878 361.12133598 430.92407703 C361.14111975 417.2473559 361.15116843 403.570634 361.16006377 389.89390212 C361.16444302 383.45997876 361.16981072 377.02605623 361.17505264 370.59213352 C361.19206584 349.21650617 361.20658668 327.84088002 361.21380138 306.46524715 C361.21427614 305.08245937 361.21475203 303.69967158 361.21522905 302.31688379 C361.21546542 301.6311311 361.2157018 300.9453784 361.21594534 300.23884532 C361.21714656 296.76435468 361.218362 293.28986405 361.21958733 289.81537342 C361.21982748 289.12584491 361.22006763 288.43631639 361.22031505 287.72589307 C361.22821161 265.35935696 361.25165071 242.99287382 361.28414327 220.62636084 C361.31841555 196.99172226 361.3381489 173.35712607 361.34144562 149.72245967 C361.34361489 136.83378184 361.35242442 123.94518187 361.3779068 111.05652714 C361.39955035 100.08391103 361.40769557 89.11139168 361.39794002 78.13875665 C361.39337702 72.53628437 361.3953971 66.93401202 361.41470146 61.33156681 C361.4322036 56.20811823 361.43144168 51.08501732 361.41580417 45.96156572 C361.41340828 44.10288143 361.417853 42.24417387 361.42963282 40.38552536 C361.44460327 37.86860431 361.43518366 35.35293906 361.41940594 32.83605099 C361.43473925 31.74085922 361.43473925 31.74085922 361.45038232 30.62354237 C361.40374767 27.24039116 361.15768985 25.44030428 359.08098477 22.71535671 C355.77812387 20.29378593 353.14090094 20.00940305 349.16679668 20.01117325 C348.18168039 20.00918238 347.1965641 20.00719151 346.1815958 20.0051403 C344.55513237 20.0095093 344.55513237 20.0095093 342.89581108 20.01396656 C341.74855049 20.01311054 340.6012899 20.01225452 339.41926384 20.01137257 C336.22351114 20.01000241 333.02779864 20.01314997 329.8320507 20.01814835 C326.33718432 20.02250569 322.84231956 20.02105435 319.34745121 20.02033043 C312.55900531 20.0197981 305.7705726 20.02442194 298.98213009 20.03083176 C291.13228542 20.03802237 283.28244871 20.03882599 275.43260002 20.03961658 C254.70070502 20.04487023 233.96881297 20.0588313 213.23692131 20.07172108 C166.93379631 20.09234608 120.63067131 20.11297108 72.92442131 20.13422108 Z M-23.07557869 79.13422108 C-23.07557869 88.37422108 -23.07557869 97.61422108 -23.07557869 107.13422108 C-11.85557869 107.13422108 -0.63557869 107.13422108 10.92442131 107.13422108 C10.92442131 97.89422108 10.92442131 88.65422108 10.92442131 79.13422108 C-0.29557869 79.13422108 -11.51557869 79.13422108 -23.07557869 79.13422108 Z M-23.07557869 188.13422108 C-23.07557869 197.37422108 -23.07557869 206.61422108 -23.07557869 216.13422108 C-11.85557869 216.13422108 -0.63557869 216.13422108 10.92442131 216.13422108 C10.92442131 206.89422108 10.92442131 197.65422108 10.92442131 188.13422108 C-0.29557869 188.13422108 -11.51557869 188.13422108 -23.07557869 188.13422108 Z M-23.07557869 296.13422108 C-23.07557869 305.37422108 -23.07557869 314.61422108 -23.07557869 324.13422108 C-11.85557869 324.13422108 -0.63557869 324.13422108 10.92442131 324.13422108 C10.92442131 314.89422108 10.92442131 305.65422108 10.92442131 296.13422108 C-0.29557869 296.13422108 -11.51557869 296.13422108 -23.07557869 296.13422108 Z M-23.07557869 405.13422108 C-23.07557869 414.37422108 -23.07557869 423.61422108 -23.07557869 433.13422108 C-11.85557869 433.13422108 -0.63557869 433.13422108 10.92442131 433.13422108 C10.92442131 423.89422108 10.92442131 414.65422108 10.92442131 405.13422108 C-0.29557869 405.13422108 -11.51557869 405.13422108 -23.07557869 405.13422108 Z " fill="#000000" transform="translate(87.0755786895752,-0.13422107696533203)"/>
<path d="M0 0 C23.44226335 20.21066261 37.38305219 47.45276109 40.08227539 78.32080078 C41.85843419 102.72165488 36.01389071 125.37523119 24.25 146.625 C23.70601562 147.61242187 23.16203125 148.59984375 22.6015625 149.6171875 C8.14201048 173.95155554 -17.74106279 191.89641227 -44.88696289 198.90429688 C-53.12304589 200.88418807 -61.25651213 202.44149872 -69.75 202.625 C-70.5234375 202.66367187 -71.296875 202.70234375 -72.09375 202.7421875 C-103.65080332 203.6888991 -133.03273971 190.95569046 -155.75 169.625 C-178.61470171 147.32609149 -189.20446755 117.77451419 -189.76123047 86.19726562 C-189.64397464 59.34058342 -179.56524704 32.65944736 -161.75 12.625 C-161.08742187 11.80773437 -160.42484375 10.99046875 -159.7421875 10.1484375 C-140.98911647 -12.31246507 -112.19687827 -24.33513784 -83.60546875 -27.0625 C-53.10625577 -29.534574 -23.36921028 -19.4623154 0 0 Z M-147.23339844 27.64672852 C-163.65904058 48.04622338 -170.75038062 73.68554165 -168.1875 99.625 C-165.53253328 117.41327706 -158.40498298 133.88972257 -146.75 147.625 C-146.17636719 148.31980469 -145.60273438 149.01460937 -145.01171875 149.73046875 C-143.62387978 151.38991343 -142.19147178 153.01192444 -140.75 154.625 C-140.42 154.625 -140.09 154.625 -139.75 154.625 C-139.7406543 153.41030029 -139.73130859 152.19560059 -139.72167969 150.9440918 C-139.68148095 146.3906736 -139.6156422 141.83791002 -139.54248047 137.28491211 C-139.51444285 135.32308429 -139.49314369 133.36114713 -139.47900391 131.39916992 C-139.30723568 108.9032574 -139.30723568 108.9032574 -132.87890625 98.63671875 C-130.33421763 96.23210473 -127.86184785 94.90470167 -124.6875 93.4375 C-121.52310528 91.95504562 -118.66172289 90.56614859 -115.75 88.625 C-116.23919922 87.75101563 -116.23919922 87.75101563 -116.73828125 86.859375 C-123.84822897 73.52035804 -125.85159445 60.14066608 -121.71484375 45.5 C-117.50895004 32.96745842 -109.502236 22.90467049 -97.75 16.625 C-84.54370905 10.48575264 -70.55094365 9.51873114 -56.734375 14.34765625 C-51.48571161 16.59413914 -46.1351488 19.1889831 -42.1015625 23.30859375 C-40.82566301 24.85757618 -40.82566301 24.85757618 -38.75 24.625 C-38.47929687 25.20121094 -38.20859375 25.77742188 -37.9296875 26.37109375 C-36.7397289 28.64462393 -35.37522282 30.60817563 -33.875 32.6875 C-26.28209728 43.91905537 -24.02585131 57.29368382 -26.24609375 70.59765625 C-27.94829815 77.28145321 -30.72531807 83.44412822 -33.75 89.625 C-33.10933594 89.85574219 -32.46867188 90.08648437 -31.80859375 90.32421875 C-22.77987892 93.72848828 -17.25093612 96.73744986 -12.6953125 105.44140625 C-11.16237399 108.98236752 -10.62386473 112.18014182 -10.54467773 116.02636719 C-10.52473251 116.8869574 -10.50478729 117.74754761 -10.48423767 118.63421631 C-10.45916893 120.01410736 -10.45916893 120.01410736 -10.43359375 121.421875 C-10.41281265 122.37064514 -10.39203156 123.31941528 -10.37062073 124.29693604 C-10.30532066 127.32288482 -10.24633112 130.3489192 -10.1875 133.375 C-10.1442962 135.42839421 -10.10068131 137.48177982 -10.05664062 139.53515625 C-9.94965927 144.5650168 -9.84833677 149.59496332 -9.75 154.625 C-8.34210205 153.4788623 -8.34210205 153.4788623 -6.90576172 152.30957031 C-6.37779999 151.87976868 -5.84983826 151.44996704 -5.30587769 151.00714111 C9.23036973 138.094079 17.69200384 114.75134076 19.16015625 95.80859375 C19.18980469 95.08800781 19.21945312 94.36742187 19.25 93.625 C19.28996094 92.72910156 19.32992187 91.83320313 19.37109375 90.91015625 C19.98092215 63.61136746 9.43130216 39.63744448 -9.18359375 20.06640625 C-26.97677131 3.20817398 -50.1339829 -5.71285932 -74.5 -6.6875 C-102.69213418 -5.89137661 -128.94570596 6.04555413 -147.23339844 27.64672852 Z M-97.75 42.625 C-102.46386511 49.44431354 -104.74342761 56.25182442 -103.75 64.625 C-101.65518495 73.28188627 -97.93443776 80.42167251 -90.21484375 85.19140625 C-82.20204922 89.33351358 -74.94720458 91.11241255 -66.125 88.375 C-58.23662268 85.4523765 -52.50459244 80.68358796 -48.484375 73.30078125 C-44.89821173 65.25716857 -44.38698573 57.2343846 -47.515625 48.92578125 C-52.32072546 39.96943894 -59.29434269 34.77688577 -68.75 31.625 C-80.78182846 30.52298568 -89.61039771 33.56326411 -97.75 42.625 Z M-117.20501709 112.81341553 C-118.92449156 115.94254251 -119.23669954 117.69642537 -119.20410156 121.24145508 C-119.20379944 122.34221878 -119.20349731 123.44298248 -119.20318604 124.57710266 C-119.18254089 125.7543541 -119.16189575 126.93160553 -119.140625 128.14453125 C-119.13496521 129.35823898 -119.12930542 130.57194672 -119.12347412 131.82243347 C-119.10110442 135.69452544 -119.05090382 139.56568824 -119 143.4375 C-118.97993591 146.06443975 -118.96168499 148.69139402 -118.9453125 151.31835938 C-118.90123746 157.75422266 -118.83431792 164.18954494 -118.75 170.625 C-116.98866387 171.43276455 -115.22655135 172.2388363 -113.46411133 173.04418945 C-112.48291824 173.4932515 -111.50172516 173.94231354 -110.49079895 174.40498352 C-88.77248954 184.07249138 -63.91995366 183.9608207 -41.875 175.5625 C-38.07927517 174.08185209 -34.38344574 172.47036379 -30.75 170.625 C-30.64867288 162.72309304 -30.57856486 154.82135328 -30.53027344 146.91894531 C-30.512401 144.22995534 -30.48455525 141.54134174 -30.44824219 138.85253906 C-30.39978385 134.99012439 -30.37704374 131.12828792 -30.359375 127.265625 C-30.33872986 126.0613385 -30.31808472 124.857052 -30.29681396 123.61627197 C-30.29651184 122.49541199 -30.29620972 121.374552 -30.29589844 120.21972656 C-30.28257477 118.74079926 -30.28257477 118.74079926 -30.26898193 117.23199463 C-30.5890322 114.5362237 -30.5890322 114.5362237 -32.29498291 112.30867004 C-35.63318422 110.01930531 -38.5743033 110.05647317 -42.484375 110.09155273 C-43.25881958 110.08293716 -44.03326416 110.07432159 -44.83117676 110.06544495 C-47.38779239 110.04276601 -49.94331368 110.04952648 -52.5 110.05859375 C-54.27832363 110.05335924 -56.05664448 110.0470834 -57.83496094 110.03981018 C-61.56067985 110.02940264 -65.2860169 110.03397277 -69.01171875 110.04858398 C-73.78712766 110.06577855 -78.56133415 110.04227075 -83.33660889 110.00709438 C-87.00838194 109.98513906 -90.6798664 109.98655717 -94.35168457 109.9948597 C-96.1123588 109.99568013 -97.87305403 109.98879912 -99.63366699 109.97408867 C-102.09507286 109.95667489 -104.55430674 109.9711557 -107.015625 109.99389648 C-107.7430188 109.98220428 -108.4704126 109.97051208 -109.21984863 109.95846558 C-112.83845545 110.02651891 -114.47033317 110.37570347 -117.20501709 112.81341553 Z " fill="#000000" transform="translate(376.75,144.375)"/>
<path d="M0 0 C0.89010428 -0.00694553 1.78020857 -0.01389106 2.69728571 -0.02104706 C5.68610352 -0.03937385 8.67413266 -0.02903691 11.66297913 -0.01878357 C13.80321855 -0.02583917 15.94345297 -0.03458266 18.0836792 -0.04489136 C23.90185575 -0.06743545 29.71976092 -0.06443381 35.53796458 -0.05556989 C40.39155895 -0.05046774 45.24510197 -0.05774629 50.09869105 -0.06504196 C61.54692367 -0.08205699 72.99502306 -0.07845899 84.44325256 -0.06175232 C96.26195572 -0.04482826 108.08028961 -0.06066608 119.89895242 -0.0929752 C130.03918252 -0.11964786 140.1792975 -0.1269534 150.31955916 -0.11846012 C156.37892414 -0.11352428 162.43806689 -0.11578219 168.4974041 -0.13624763 C174.19466475 -0.15456812 179.89139312 -0.14869012 185.58862495 -0.12404823 C187.68123736 -0.11902887 189.77389007 -0.1225591 191.86647034 -0.13519669 C194.72027177 -0.15106978 197.57230809 -0.13623055 200.42602539 -0.11352539 C201.25695943 -0.12536112 202.08789348 -0.13719685 202.94400734 -0.14939123 C207.24321589 -0.07975098 208.80275191 0.1337017 212.27668095 2.92721653 C215.01073111 6.46463376 215.71834807 9.08756458 215.27650452 13.5146637 C213.65855408 16.87502229 212.46815646 18.86655578 209.16614437 20.66243267 C205.32281389 21.79593222 201.6371389 21.79396961 197.66726685 21.77536011 C196.3686391 21.78109843 196.3686391 21.78109843 195.04377645 21.78695267 C192.14350746 21.79726942 189.24343694 21.79329303 186.34315491 21.7893219 C184.26350725 21.79366909 182.1838612 21.79885226 180.10421753 21.80480957 C174.45551254 21.81820966 168.80687442 21.81877714 163.15815663 21.81624627 C158.44379812 21.8151773 153.72945317 21.820058 149.01509756 21.82485169 C137.89429647 21.83595025 126.77352917 21.83638223 115.65272522 21.83033752 C104.17663627 21.82429567 92.70066985 21.83661337 81.22460181 21.85790759 C71.37395001 21.87551434 61.52333726 21.88152643 51.6726703 21.87826985 C45.78827772 21.87645546 39.90397255 21.87910878 34.01959419 21.89298439 C28.48659461 21.90554307 22.9537863 21.90363712 17.42078972 21.8905735 C15.38987031 21.88820395 13.35893752 21.89095591 11.32803345 21.89919662 C8.55604131 21.90963359 5.78469462 21.90158788 3.01272583 21.8888855 C2.20873244 21.89625978 1.40473905 21.90363407 0.57638222 21.91123182 C-4.23465564 21.86483951 -7.5766916 21.21554532 -11.72349548 18.5146637 C-14.17436962 14.53199323 -14.86966288 12.47287218 -14.16099548 7.8271637 C-11.04834246 0.65452846 -7.44621209 -0.0736499 0 0 Z " fill="#000000" transform="translate(201.72349548339844,375.48533630371094)"/>
<path d="M0 0 C1.27870972 -0.00525696 2.55741943 -0.01051392 3.87487793 -0.01593018 C7.37076913 -0.02956924 10.86639376 -0.02431941 14.36228943 -0.01479292 C18.02701517 -0.00717855 21.69171864 -0.01424686 25.35644531 -0.01895142 C31.50980715 -0.02440381 37.66306084 -0.01723097 43.81640625 -0.00292969 C50.922646 0.01339591 58.0286275 0.00810703 65.13486099 -0.0084089 C71.24460174 -0.02203854 77.35426491 -0.02393623 83.46401596 -0.0160929 C87.10939515 -0.01142447 90.75465309 -0.01076855 94.40002441 -0.02070236 C98.46475429 -0.03100595 102.52904145 -0.0167106 106.59375 0 C107.79704956 -0.00607269 109.00034912 -0.01214539 110.2401123 -0.0184021 C120.49313352 0.05972041 120.49313352 0.05972041 125.296875 3.38818359 C128.10294186 6.5563236 128.296875 8.10954554 128.296875 12.38818359 C127.97677301 15.69590418 126.58498958 17.99904227 124.1875 20.30451584 C119.75718854 22.84388016 114.09246495 22.07478895 109.140625 22.03515625 C107.78839949 22.04193532 106.43618322 22.05084009 105.08398438 22.06170654 C101.41854149 22.08447303 97.75380337 22.07567519 94.08834839 22.05981112 C90.24963504 22.04713807 86.41098139 22.05889611 82.57226562 22.06674194 C76.12619205 22.07583447 69.68040505 22.06386123 63.234375 22.04003906 C55.78546432 22.01282824 48.33723792 22.0216427 40.88834381 22.04917109 C34.48900756 22.07187269 28.08987712 22.07505721 21.69051361 22.06197774 C17.87014044 22.05418888 14.05008875 22.05312571 10.22973633 22.06966019 C6.63761419 22.08412136 3.04637284 22.07405493 -0.5456543 22.0451889 C-2.49005935 22.03544108 -4.43453904 22.05026442 -6.37890625 22.06582642 C-15.88303183 21.95038902 -15.88303183 21.95038902 -18.96289062 19.0274353 C-21.0229535 15.90312945 -21.703125 14.14013072 -21.703125 10.38818359 C-20.57071662 6.4580604 -19.72743487 4.12886591 -16.37597656 1.70541382 C-10.92971054 -0.24783316 -5.74423274 -0.02898942 0 0 Z " fill="#000000" transform="translate(248.703125,421.61181640625)"/>
</svg>
