<?xml version="1.0" encoding="UTF-8"?>
<svg version="1.1" xmlns="http://www.w3.org/2000/svg" width="512" height="512">
<path d="M0 0 C1.53450793 -0.00417831 3.06901277 -0.00965854 4.60351193 -0.01631981 C8.79919869 -0.03072805 12.99468824 -0.02654422 17.19038558 -0.019153 C21.72356094 -0.01441214 26.2566942 -0.02693929 30.78985596 -0.03717041 C39.66259329 -0.05434584 48.53525976 -0.05520101 57.4080094 -0.04995751 C64.62163438 -0.04591219 71.83523847 -0.04736366 79.04886246 -0.05270576 C80.59028467 -0.0538284 80.59028467 -0.0538284 82.16284672 -0.05497371 C84.25060661 -0.05650523 86.3383665 -0.05804357 88.42612638 -0.05958868 C107.99442155 -0.07330921 127.56267671 -0.06787919 147.13097097 -0.05640347 C165.02161346 -0.04647183 182.91215252 -0.05941136 200.80277906 -0.08333766 C219.18620609 -0.10773721 237.56958495 -0.1173344 255.95302784 -0.11068493 C266.26860062 -0.10719459 276.58409387 -0.10941261 286.89965439 -0.12693596 C295.68112349 -0.14166863 304.46245705 -0.14227942 313.24392353 -0.12486505 C317.72140371 -0.11636144 322.19864185 -0.11418984 326.67610931 -0.1295166 C330.78073443 -0.14339277 334.88491084 -0.13856322 338.98951019 -0.11927737 C340.46855234 -0.11552599 341.94763068 -0.11841431 343.4266405 -0.12888902 C359.32709185 -0.23342725 370.82535548 3.86332431 382.50564575 14.70018005 C393.27652873 26.08073565 395.23042904 38.72783272 395.1892395 53.81736755 C395.19381305 55.29890682 395.19912206 56.78044398 395.2051239 58.26197815 C395.21400944 61.35328336 395.21168498 64.44432961 395.20169067 67.53562927 C395.19021513 71.46473515 395.21041328 75.3929403 395.23960781 79.32192802 C395.25810217 82.37806216 395.25765117 85.43398575 395.25197029 88.4901619 C395.25181864 89.93720385 395.25773116 91.38426153 395.27026176 92.83124924 C395.37378618 106.74357185 392.65813302 117.49209862 383.75564575 128.38768005 C383.24388794 129.02447693 382.73213013 129.6612738 382.2048645 130.31736755 C378.65278477 134.28370968 374.71613783 136.62008029 370.01345825 139.0947113 C369.10962402 139.57309448 369.10962402 139.57309448 368.18753052 140.06114197 C366.71254074 140.84103002 365.23440574 141.61496462 363.75564575 142.38768005 C363.75344591 144.19550901 363.75344591 144.19550901 363.75120163 146.03985977 C363.71545893 174.68327158 363.65915909 203.32659452 363.5777248 231.96991189 C363.56770798 235.49946701 363.55786374 239.02902259 363.54812622 242.55857849 C363.54521416 243.61253453 363.54521416 243.61253453 363.54224327 244.68778262 C363.51126677 256.04782465 363.49425479 267.4078465 363.48245153 278.76792279 C363.47001737 290.43428781 363.4421697 302.10054139 363.40103269 313.7668407 C363.3784257 320.31549028 363.36273464 326.86398951 363.3637619 333.41268158 C363.36450894 339.58180955 363.34653977 345.75060524 363.31447792 351.91964722 C363.30598873 354.17862176 363.30422228 356.43763362 363.30984306 358.69661713 C363.34933232 377.01299234 361.33564804 390.24175188 348.44314575 404.13768005 C337.892517 414.12309655 326.0801734 416.84854703 311.940979 416.77536011 C310.68316742 416.78074565 309.42535583 416.78613118 308.12942874 416.79167992 C304.66342935 416.80605626 301.19766933 416.80191452 297.73165727 416.79451311 C293.98376157 416.78976423 290.23591638 416.80230644 286.48803711 416.81253052 C279.1553576 416.82969042 271.82276389 416.83056436 264.49006952 416.82531761 C258.52739669 416.82126935 252.56474912 416.82272726 246.60207748 416.82806587 C245.7520858 416.82881429 244.90209411 416.82956272 244.0263451 416.83033382 C242.29935321 416.83186536 240.57236132 416.83340371 238.84536944 416.83494879 C222.66491931 416.84866373 206.48451757 416.84324327 190.30406855 416.83176357 C175.5173504 416.8218328 160.7307574 416.83477094 145.94405855 416.85869776 C130.7427442 416.88310922 115.54148809 416.89269157 100.34015453 416.88604504 C91.81309867 416.88255729 83.28613904 416.88475544 74.75909805 416.90229607 C67.50008787 416.91704368 60.24124167 416.91762017 52.98223461 416.90022516 C49.28243897 416.89173365 45.58293593 416.88951983 41.88315582 416.90487671 C37.86329515 416.92135488 33.8441355 416.90652918 29.82427979 416.8888855 C28.667643 416.8984905 27.51100622 416.90809551 26.31931984 416.91799158 C12.10462226 416.7900751 1.33121009 411.65513471 -8.99435425 402.07518005 C-18.06347195 392.49271607 -21.71389417 381.21398921 -21.64308167 368.22566223 C-21.64972849 367.25339963 -21.65637532 366.28113702 -21.66322356 365.27941191 C-21.68175084 362.0489535 -21.67925519 358.81886883 -21.67672729 355.58836365 C-21.68575071 353.26178977 -21.69607935 350.93522064 -21.70761108 348.60865784 C-21.73513892 342.31191753 -21.74445994 336.01526754 -21.75046515 329.71847486 C-21.75985973 323.13076685 -21.78606405 316.54312601 -21.81047058 309.95545959 C-21.84964735 298.90472191 -21.8775202 287.85399482 -21.8979187 276.8032074 C-21.91895015 265.42492578 -21.94624408 254.04668736 -21.98190308 242.66844177 C-21.9841019 241.96613805 -21.98630073 241.26383433 -21.98856618 240.54024868 C-21.99963637 237.01671388 -22.01082908 233.49317948 -22.02208269 229.96964526 C-22.1151652 200.77569756 -22.1865895 171.58171857 -22.24435425 142.38768005 C-23.12550903 141.93167419 -24.00666382 141.47566833 -24.91452026 141.00584412 C-26.07652954 140.39450623 -27.23853882 139.78316833 -28.4357605 139.15330505 C-29.58504028 138.55292419 -30.73432007 137.95254333 -31.91842651 137.33396912 C-40.70611866 132.19152753 -46.23357661 124.6246225 -50.24435425 115.38768005 C-50.49742844 114.82019547 -50.75050262 114.25271088 -51.01124573 113.66802979 C-53.89868747 106.29816087 -53.69912791 98.84397282 -53.677948 91.0556488 C-53.68252018 89.57268029 -53.6878288 88.08971389 -53.6938324 86.60675049 C-53.70272642 83.50946915 -53.70038436 80.41244615 -53.69039917 77.31517029 C-53.67893351 73.37818883 -53.69910215 69.4421076 -53.72831631 65.50524426 C-53.74681292 62.444819 -53.74635904 59.38460396 -53.74067879 56.32413673 C-53.74052711 54.87430372 -53.74644237 53.42445503 -53.75897026 51.97467613 C-53.87726358 36.0401433 -49.82676819 24.3805472 -38.93185425 12.63768005 C-27.56572286 1.88044856 -15.12207287 -0.06728843 0 0 Z M-17.18185425 38.13768005 C-21.49912384 44.94065032 -21.55239128 51.40859669 -21.5451355 59.25486755 C-21.54942062 60.28902802 -21.55370575 61.32318848 -21.55812073 62.38868713 C-21.56384452 64.56884532 -21.56437873 66.7490226 -21.56002808 68.92918396 C-21.55687097 72.24511165 -21.58034262 75.56014388 -21.60568237 78.8759613 C-21.60795601 81.00226227 -21.60865856 83.12856562 -21.6076355 85.25486755 C-21.61684525 86.23639801 -21.62605499 87.21792847 -21.63554382 88.22920227 C-21.5925229 94.70585068 -21.18851882 101.71810687 -16.96940613 106.97676086 C-9.66923527 113.6502146 -0.32406001 112.67554327 8.90014648 112.64837646 C10.35170536 112.65139881 11.80326265 112.65528872 13.25481713 112.65996903 C17.23500768 112.67024703 21.21510813 112.66806772 25.19530606 112.66378844 C29.49124704 112.66132086 33.78716634 112.67033578 38.08309937 112.67782593 C46.49601846 112.69057408 54.90890564 112.69236647 63.32183276 112.69002566 C70.16036084 112.68824247 76.99887924 112.68999219 83.83740616 112.69425011 C84.81078638 112.6948453 85.7841666 112.69544048 86.78704319 112.69605371 C88.76448487 112.69726546 90.74192655 112.6984796 92.71936823 112.69969609 C111.26318516 112.71057209 129.80698389 112.70840885 148.35080184 112.70231124 C165.31246508 112.69714211 182.27407089 112.70839733 199.23572277 112.72740946 C216.65513443 112.74678489 234.07451892 112.75504437 251.49394143 112.75128621 C261.27233592 112.74937371 271.05068153 112.7518665 280.82906723 112.76600075 C289.1535682 112.77791175 297.4779902 112.77932258 305.80249225 112.76721058 C310.04866593 112.76131992 314.29469514 112.76022763 318.54085922 112.77221298 C322.43073238 112.78306495 326.32034032 112.77997669 330.21020104 112.7659513 C331.61458396 112.76330247 333.01898762 112.76567677 334.4233502 112.77368716 C346.56450125 113.04183147 346.56450125 113.04183147 357.3319701 108.11277467 C363.28322084 101.66345427 363.06403978 93.75280904 363.056427 85.52049255 C363.06071213 84.48633209 363.06499725 83.45217163 363.06941223 82.38667297 C363.07513602 80.20651479 363.07567023 78.02633751 363.07131958 75.84617615 C363.06816248 72.53024846 363.09163412 69.21521623 363.11697388 65.8993988 C363.11924751 63.77309784 363.11995007 61.64679449 363.118927 59.52049255 C363.13274162 58.04819687 363.13274162 58.04819687 363.14683533 56.54615784 C363.10381441 50.06950942 362.69981033 43.05725324 358.48069763 37.79859924 C351.18052677 31.12514551 341.83535151 32.09981684 332.61114502 32.12698364 C331.15958614 32.12396129 329.70802885 32.12007139 328.25647438 32.11539108 C324.27628383 32.10511308 320.29618337 32.10729239 316.31598544 32.11157167 C312.02004447 32.11403925 307.72412517 32.10502432 303.42819214 32.09753418 C295.01527305 32.08478603 286.60238587 32.08299364 278.18945874 32.08533444 C271.35093066 32.08711764 264.51241227 32.08536792 257.67388535 32.08111 C256.70050512 32.08051481 255.7271249 32.07991962 254.72424831 32.0793064 C252.74680663 32.07809464 250.76936495 32.07688051 248.79192327 32.07566402 C230.24810635 32.06478802 211.70430761 32.06695125 193.16048966 32.07304887 C176.19882642 32.078218 159.23722062 32.06696277 142.27556874 32.04795065 C124.85615708 32.02857522 107.43677259 32.02031574 90.01735008 32.0240739 C80.23895559 32.0259864 70.46060998 32.0234936 60.68222427 32.00935936 C52.3577233 31.99744836 44.03330131 31.99603753 35.70879926 32.00814953 C31.46262557 32.01404019 27.21659636 32.01513248 22.97043228 32.00314713 C19.08055912 31.99229516 15.19095118 31.99538342 11.30109046 32.00940881 C9.89670754 32.01205764 8.49230388 32.00968333 7.0879413 32.00167295 C-6.17014616 31.70443561 -6.17014616 31.70443561 -17.18185425 38.13768005 Z M10.75564575 144.38768005 C10.69377075 181.16205505 10.63189575 217.93643005 10.56814575 255.82518005 C10.54083374 267.43761902 10.51352173 279.05005798 10.48538208 291.01438904 C10.4753489 301.42192707 10.4753489 301.42192707 10.46931458 311.82946777 C10.46651917 316.46578272 10.45527481 321.10199467 10.43891907 325.73828125 C10.41832493 331.65447961 10.41217545 337.57052842 10.41642892 343.48675931 C10.41553964 345.65655133 10.40960077 347.82634864 10.39800036 349.99610984 C10.38303762 352.93142235 10.38669041 355.86615685 10.3948822 358.80148315 C10.38614421 359.64659486 10.37740622 360.49170656 10.36840343 361.36242771 C10.41388929 367.44317623 11.10653753 374.07333425 15.03060371 378.98280233 C21.76374199 385.11036653 29.93676712 384.67785516 38.47045898 384.64837646 C40.23399993 384.65411479 40.23399993 384.65411479 42.03316796 384.65996903 C45.28367725 384.66848396 48.53404165 384.66807235 51.78455472 384.66378844 C55.29521444 384.66131757 58.80584779 384.67033986 62.3164978 384.67782593 C69.18935674 384.69056502 76.06217659 384.6923676 82.93504535 384.69002566 C88.52262056 384.68824143 94.11018392 384.68999441 99.69775772 384.69425011 C100.49351482 384.6948453 101.28927192 384.69544048 102.10914288 384.69605371 C103.72581656 384.69726548 105.34249024 384.69847962 106.95916392 384.69969609 C122.11513422 384.71056862 137.27108227 384.70841051 152.42705382 384.70231124 C166.2847895 384.69714257 180.14245488 384.7083967 194.00017665 384.72740946 C208.23747461 384.74679289 222.47473932 384.75504296 236.71205056 384.75128621 C244.70192601 384.7493749 252.69174162 384.75185485 260.68160629 384.76600075 C267.4836445 384.77792197 274.28558605 384.77931116 281.08762561 384.76721058 C284.55610846 384.76132701 288.02441457 384.76020783 291.49288559 384.77221298 C295.25770924 384.78266046 299.02205864 384.77459501 302.78686523 384.76190186 C303.87646793 384.76927614 304.96607063 384.77665043 306.08869159 384.78424817 C312.73805377 384.73712194 319.93196667 384.46170073 325.34146106 380.11277467 C330.86766862 374.0820198 331.04890939 366.74813978 330.99615479 359.04199219 C330.99786682 358.12350494 330.99957886 357.2050177 331.00134277 356.25869751 C331.00464356 353.1825526 330.99362172 350.10662721 330.98269653 347.03050232 C330.98208367 344.78689296 330.98235117 342.54328322 330.98342705 340.29967403 C330.98387824 334.29578099 330.97229323 328.29196779 330.95820618 322.28809357 C330.94680959 316.65262604 330.94627957 311.01717786 330.94485474 305.38169861 C330.93436342 288.9045152 330.90644108 272.42734661 330.88064575 255.95018005 C330.83939575 219.13455505 330.79814575 182.31893005 330.75564575 144.38768005 C225.15564575 144.38768005 119.55564575 144.38768005 10.75564575 144.38768005 Z " fill="#000000" transform="translate(85.24435424804688,47.61231994628906)"/>
<path d="M0 0 C1.04462402 -0.00700928 2.08924805 -0.01401855 3.16552734 -0.02124023 C6.61062381 -0.0388121 10.05489551 -0.02719969 13.5 -0.01367188 C15.8984391 -0.016367 18.29687714 -0.0202496 20.6953125 -0.02526855 C25.71885595 -0.03116254 30.74211467 -0.02260346 35.765625 -0.00390625 C42.20189072 0.01888275 48.63748922 0.00575921 55.07373047 -0.01819611 C60.02544168 -0.03265649 64.97699495 -0.02804688 69.92871094 -0.01768494 C72.30175862 -0.01501834 74.67482068 -0.01828502 77.04785156 -0.02760315 C80.36562028 -0.03777219 83.68231145 -0.02226121 87 0 C88.46832275 -0.01214539 88.46832275 -0.01214539 89.96630859 -0.02453613 C95.66037885 0.04617256 98.99980593 0.68240588 103.5 4.51757812 C107.12833663 8.33687985 107.81000458 11.40036819 108 16.51757812 C107.81000458 21.63478806 107.12833663 24.6982764 103.5 28.51757812 C98.13277344 33.09165605 93.72889928 33.09081505 87 33.03515625 C85.95537598 33.04216553 84.91075195 33.0491748 83.83447266 33.05639648 C80.38937619 33.07396835 76.94510449 33.06235594 73.5 33.04882812 C71.1015609 33.05152325 68.70312286 33.05540585 66.3046875 33.0604248 C61.28114405 33.06631879 56.25788533 33.05775971 51.234375 33.0390625 C44.79810928 33.0162735 38.36251078 33.02939704 31.92626953 33.05335236 C26.97455832 33.06781274 22.02300505 33.06320313 17.07128906 33.05284119 C14.69824138 33.05017459 12.32517932 33.05344127 9.95214844 33.0627594 C6.63437972 33.07292844 3.31768855 33.05741746 0 33.03515625 C-1.46832275 33.04730164 -1.46832275 33.04730164 -2.96630859 33.05969238 C-8.66037885 32.98898369 -11.99980593 32.35275037 -16.5 28.51757812 C-20.12833663 24.6982764 -20.81000458 21.63478806 -21 16.51757812 C-20.81000458 11.40036819 -20.12833663 8.33687985 -16.5 4.51757812 C-11.13277344 -0.0564998 -6.72889928 -0.0556588 0 0 Z " fill="#000000" transform="translate(212.5,239.482421875)"/>
</svg>
