<?xml version="1.0" encoding="UTF-8"?>
<svg version="1.1" xmlns="http://www.w3.org/2000/svg" width="512" height="512">
<path d="M0 0 C1.14159091 0.00333732 1.14159091 0.00333732 2.30624425 0.00674206 C10.29088637 0.08358977 18.17063667 0.79084472 26.10806274 1.60618591 C27.69518154 1.76290661 29.28237281 1.91889482 30.86962891 2.07421875 C35.1217932 2.49240793 39.37287416 2.920768 43.62381029 3.35123897 C48.09619925 3.80240362 52.56951448 4.24419904 57.04272461 4.68713379 C64.53901777 5.43070695 72.03468532 6.18032221 79.52993774 6.93431091 C90.08973076 7.99656395 100.6506366 9.04741207 111.21177411 10.09620082 C119.43963853 10.91372961 127.6671736 11.7345646 135.89468384 12.5556488 C136.77281502 12.64322976 137.65094621 12.73081071 138.55568743 12.82104564 C143.60409368 13.32469165 148.65233155 13.82996902 153.7003212 14.33777428 C155.22604887 14.49105345 156.75182601 14.64384128 158.27765656 14.79609299 C160.36544445 15.00453384 162.45303657 15.21483829 164.54058838 15.42562866 C166.28975524 15.60123023 166.28975524 15.60123023 168.0742588 15.7803793 C169.17773344 15.9034448 170.28120808 16.0265103 171.41812134 16.15330505 C172.66469702 16.28819619 173.9112727 16.42308733 175.1956234 16.56206608 C178.41812134 17.15330505 178.41812134 17.15330505 180.85562134 19.34080505 C182.69945688 22.65970903 182.97528287 24.41236337 182.41812134 28.15330505 C181.29312134 30.46580505 181.29312134 30.46580505 179.41812134 32.15330505 C174.85233753 33.24585564 170.84399474 33.0970484 166.19372559 32.63490295 C165.48905029 32.56704255 164.784375 32.49918216 164.05834591 32.42926538 C161.70855726 32.20104313 159.36005184 31.9616049 157.01138306 31.72215271 C155.32249414 31.5557684 153.63353749 31.39007033 151.94451904 31.2250061 C147.36550543 30.77546637 142.78752383 30.31611721 138.20968008 29.85483599 C133.41812361 29.37353508 128.62573006 28.90071431 123.83343506 28.42683411 C115.78804905 27.6300276 107.74327723 26.82724789 99.69888306 26.02049255 C90.39616121 25.08757553 81.09271765 24.16216836 71.78880489 23.24120867 C61.8841771 22.26077219 51.98000882 21.27576012 42.07601786 20.28891325 C39.22118222 20.00470562 36.3662722 19.72125484 33.51134872 19.43793106 C29.02788567 18.99269844 24.54474632 18.54433385 20.06184006 18.09353065 C18.41558474 17.92843861 16.76922781 17.76435629 15.12276459 17.60135078 C12.87773792 17.37889666 10.63311106 17.15276959 8.3885498 16.92567444 C7.13164274 16.79993357 5.87473568 16.6741927 4.57974052 16.54464149 C2.09681738 16.23731216 -0.185158 15.84539088 -2.58187866 15.15330505 C-2.61926147 16.11623474 -2.65664429 17.07916443 -2.69515991 18.0712738 C-3.14826076 28.19908659 -4.05382611 38.24816506 -5.12484741 48.3290863 C-5.26644707 49.67692485 -5.40784644 51.02478444 -5.54904175 52.37266541 C-5.89136081 55.63309022 -6.2356822 58.89329006 -6.58187866 62.15330505 C-5.89349915 62.05446235 -5.20511963 61.95561964 -4.49588013 61.8537817 C12.27073445 59.44704205 29.03896245 57.05191187 45.80906677 54.66961575 C53.91899462 53.51726669 62.02833171 52.36102665 70.13638306 51.19554138 C77.20513906 50.17945894 84.2749034 49.170763 91.34596443 48.17084271 C95.08838209 47.64136585 98.8301995 47.10825937 102.5708313 46.56629753 C106.09566361 46.05572101 109.62176768 45.55507435 113.14906502 45.0618248 C115.05220856 44.79311633 116.95388288 44.5140647 118.85548401 44.23464966 C132.95153128 42.28667964 132.95153128 42.28667964 139.66812134 45.90330505 C144.81942538 50.11800836 146.8825133 53.50906316 147.98062134 60.09080505 C148.09575073 60.76740173 148.21088013 61.44399841 148.32949829 62.14109802 C148.71577751 64.4754435 149.07054788 66.81288588 149.41812134 69.15330505 C149.62549927 70.53848328 149.62549927 70.53848328 149.83706665 71.9516449 C150.27095808 74.8924102 150.69208889 77.83461016 151.10562134 80.77830505 C151.23718628 81.71408386 151.36875122 82.64986267 151.50430298 83.61399841 C152.11514341 88.1626441 152.57866701 92.55099583 152.41812134 97.15330505 C152.99564148 96.99541504 153.57316162 96.83752502 154.16818237 96.67485046 C156.29226629 96.18247879 158.24468739 95.94438533 160.41714478 95.80857849 C161.57920441 95.73410492 161.57920441 95.73410492 162.76473999 95.65812683 C163.59394958 95.61012939 164.42315918 95.56213196 165.27749634 95.51268005 C166.57230927 95.43754181 166.57230927 95.43754181 167.89328003 95.36088562 C169.71880741 95.25768447 171.54447709 95.1569745 173.37026978 95.05857849 C175.22877618 94.95543625 177.08688312 94.84481195 178.94448853 94.72654724 C181.63814582 94.55514139 184.33224129 94.40649962 187.02749634 94.26268005 C188.25916534 94.17853851 188.25916534 94.17853851 189.51571655 94.09269714 C195.84997194 93.7946927 201.43502505 94.66267438 206.47671509 98.87205505 C206.93175415 99.45986755 207.38679321 100.04768005 207.85562134 100.65330505 C208.32870728 101.24111755 208.80179321 101.82893005 209.28921509 102.43455505 C211.59056373 105.93833845 211.64767077 109.33989714 211.88296509 113.41868591 C211.99813477 115.36363197 211.99813477 115.36363197 212.1156311 117.34786987 C212.19573404 118.77129021 212.2757278 120.1947167 212.35562134 121.6181488 C212.44114263 123.0905448 212.52700453 124.56292104 212.6131897 126.03527832 C212.84005978 129.92856114 213.06186011 133.82211772 213.28274536 137.71574402 C213.46047587 140.83388072 213.64177969 143.9518044 213.82328796 147.06972313 C214.75600782 163.09418237 215.66071372 179.11943415 216.41812134 195.15330505 C220.04812134 195.15330505 223.67812134 195.15330505 227.41812134 195.15330505 C227.45618393 194.2043335 227.49424652 193.25536194 227.53346252 192.27763367 C228.18966538 177.82674077 229.68386691 163.46005459 231.14459348 149.07309246 C231.50950711 145.46882659 231.86934982 141.86405462 232.22962952 138.25932312 C233.06450137 129.91403556 233.90517612 121.56933791 234.74659729 113.22470856 C235.82173641 102.55985708 236.89444269 91.8947641 237.96136326 81.22908711 C238.38924618 76.95367578 238.82013658 72.67858172 239.25343144 68.40371561 C239.45714224 66.38962393 239.65950251 64.375402 239.86126709 62.3611145 C240.10665216 59.91161641 240.35416401 57.46233003 240.60423279 55.01330566 C240.71217163 53.92881638 240.82011047 52.84432709 240.93132019 51.72697449 C241.07317167 50.32128016 241.07317167 50.32128016 241.21788883 48.88718796 C241.43178111 45.96680081 241.45170775 43.08047182 241.41812134 40.15330505 C240.59610229 40.0781366 239.77408325 40.00296814 238.92715454 39.92552185 C235.19364536 39.57681499 231.46225468 39.20902219 227.73062134 38.84080505 C226.43704712 38.72285583 225.1434729 38.60490662 223.81069946 38.48338318 C222.56353149 38.35769958 221.31636353 38.23201599 220.03140259 38.1025238 C218.88453979 37.99255066 217.737677 37.88257751 216.55606079 37.76927185 C213.22643037 37.11567677 211.1486294 36.14248468 208.41812134 34.15330505 C206.99149915 31.30006068 207.10778266 29.31875956 207.41812134 26.15330505 C208.79312134 23.27830505 208.79312134 23.27830505 211.41812134 21.15330505 C219.01544334 20.18746432 227.10896067 21.56627471 234.66812134 22.40330505 C235.81280884 22.51287537 236.95749634 22.62244568 238.13687134 22.7353363 C244.29785286 23.41590984 248.71699498 23.9840865 253.41812134 28.15330505 C257.75940126 33.90256765 258.56730547 37.76238641 258.08023071 44.78172302 C258.03147545 45.53690153 257.98272018 46.29208004 257.93248749 47.07014275 C257.39306404 55.09548794 256.62793932 63.09616909 255.82437134 71.09861755 C255.6710043 72.64936391 255.517893 74.20013558 255.36502075 75.75093079 C255.04771567 78.9627392 254.72821571 82.17431823 254.40689087 85.38572693 C253.99669259 89.48596591 253.59086545 93.58662293 253.18650055 97.68744087 C252.87204683 100.87381914 252.55596735 104.06003439 252.23933411 107.24619675 C252.08909116 108.75872756 251.93919239 110.2712926 251.78965759 111.78389359 C251.58077126 113.89302834 251.36985361 116.0019503 251.15835571 118.11082458 C250.97967957 119.902556 250.97967957 119.902556 250.7973938 121.73048401 C250.41098843 125.21767745 249.93273557 128.68291251 249.41812134 132.15330505 C250.45630005 132.13235779 251.49447876 132.11141052 252.56411743 132.08982849 C256.45915638 132.01678547 260.35413631 131.97127472 264.24966431 131.93357849 C265.92750265 131.91360806 267.6052727 131.88642173 269.28286743 131.85154724 C280.58524566 131.6226724 290.40667729 131.43392843 299.29312134 139.40330505 C305.00492472 145.66742905 307.53747364 152.44712196 307.55234241 160.8493824 C307.55680026 162.01811712 307.5612581 163.18685185 307.56585103 164.39100277 C307.56557449 166.31849545 307.56557449 166.31849545 307.56529236 168.28492737 C307.5685922 169.66306184 307.57231802 171.04119534 307.57643384 172.41932762 C307.58644834 176.21051278 307.59016975 180.00168211 307.59282315 183.79287863 C307.59672783 187.8802975 307.60630605 191.96770386 307.61503601 196.05511475 C307.63479573 205.92825403 307.64486598 215.80139433 307.6537638 225.67454845 C307.65814748 230.32450001 307.66351408 234.97445043 307.66875267 239.62440109 C307.68576441 255.0827441 307.7002585 270.5410864 307.70750141 285.99943733 C307.70941129 290.01068752 307.71133163 294.0219377 307.71328735 298.03318787 C307.71377109 299.0301587 307.71425483 300.02712954 307.71475323 301.05431162 C307.72305323 317.20395349 307.74838989 333.35352128 307.78086803 349.50313081 C307.81394372 366.08510919 307.83195063 382.66704992 307.83514565 399.24906147 C307.83731027 408.5586315 307.84605187 417.8680935 307.87160683 427.17763138 C307.89332077 435.10619826 307.90136082 443.03463088 307.89164004 450.96322413 C307.88709736 455.00702787 307.88897958 459.05055461 307.90840149 463.0943203 C307.9260485 466.80062212 307.92502337 470.50644519 307.9095042 474.21275221 C307.90601099 476.17957209 307.92214297 478.14639709 307.93910867 480.1131469 C307.87371879 489.13861217 306.21858764 495.91259895 301.23062134 503.46580505 C295.23114075 509.19864206 288.66205928 512.27536479 280.37263489 512.28473282 C279.10055585 512.28857396 277.82847681 512.29241511 276.51784992 512.29637265 C275.0981324 512.29559236 273.67841492 512.29471357 272.25869751 512.29374695 C270.75681831 512.29632979 269.2549398 512.29934272 267.75306225 512.30275035 C263.61545582 512.31083278 259.47786674 512.31261061 255.34025335 512.31334782 C250.8821246 512.31519615 246.42400489 512.32274226 241.96588135 512.32948303 C232.21410369 512.34307452 222.46233014 512.34909201 212.71054459 512.35349369 C206.62571373 512.35625408 200.54088447 512.36049099 194.45605469 512.36499786 C177.62005208 512.37719034 160.78405075 512.38749052 143.94804382 512.39087296 C142.33126815 512.3912023 142.33126815 512.3912023 140.68183035 512.39153831 C139.60135996 512.39175658 138.52088957 512.39197486 137.40767765 512.39219975 C135.21812502 512.39264323 133.0285724 512.39308979 130.83901978 512.39353943 C129.75291943 512.39376086 128.66681909 512.39398229 127.54780662 512.39421043 C109.93518689 512.39816143 92.32260845 512.41562476 74.71000469 512.43889895 C56.6421253 512.46258281 38.57426667 512.47507341 20.5063715 512.47624087 C10.35586867 512.47715917 0.20541968 512.48295055 -9.94506836 512.50106049 C-18.58530476 512.51642134 -27.22547068 512.5216057 -35.86571813 512.51332238 C-40.27719422 512.5094019 -44.68852821 512.51041321 -49.09998703 512.52437973 C-53.13402984 512.53703511 -57.16782255 512.53599557 -61.2018646 512.52378902 C-62.66548181 512.52181742 -64.12911624 512.52497717 -65.59270918 512.53363338 C-67.5739084 512.54461416 -69.55518915 512.53550522 -71.53639221 512.52524185 C-72.63937243 512.52583894 -73.74235266 512.52643603 -74.87875652 512.52705121 C-77.58187866 512.15330505 -77.58187866 512.15330505 -79.40112782 510.8409965 C-81.38988559 507.99839046 -81.52294792 505.57128788 -81.58187866 502.15330505 C-79.96591413 499.46564734 -79.96591413 499.46564734 -77.58187866 497.15330505 C-74.79007018 496.52935255 -74.79007018 496.52935255 -71.49981117 496.53082848 C-70.24500816 496.51923993 -68.99020515 496.50765139 -67.6973778 496.49571168 C-66.3023169 496.50812064 -64.90726 496.52098516 -63.51220703 496.53425598 C-62.03222007 496.53009426 -60.55223793 496.52373059 -59.07226884 496.51534998 C-54.99951125 496.49862854 -50.92736128 496.51305698 -46.85463715 496.5324111 C-42.4646144 496.54781694 -38.07467152 496.53439667 -33.68464661 496.52432251 C-26.07537321 496.51069322 -18.46627973 496.51502412 -10.8570137 496.53115463 C0.15127305 496.55420225 11.15937917 496.54692277 22.16767187 496.53162344 C40.03567562 496.50733786 57.90362165 496.50315162 75.77163696 496.51365662 C76.8414318 496.51428044 77.91122663 496.51490426 79.01343949 496.51554699 C81.17860963 496.5168183 83.34377977 496.51809254 85.50894991 496.5193697 C87.11911581 496.52031827 87.11911581 496.52031827 88.7618103 496.52128601 C90.37338051 496.52224323 90.37338051 496.52224323 92.01750769 496.52321979 C103.94629265 496.53002353 115.87507679 496.53201671 127.80386353 496.5322113 C128.87175162 496.53223414 129.93963972 496.53225697 131.03988807 496.53228049 C148.83774982 496.53221128 166.63558963 496.52018764 184.4334408 496.50125182 C195.41543391 496.49027987 206.39731225 496.49113146 217.37929977 496.50719155 C224.90292119 496.51764845 232.42649641 496.51789358 239.95012091 496.51007341 C244.29311832 496.50598084 248.63596889 496.50694201 252.97894859 496.52100563 C256.95389389 496.5338216 260.92859063 496.53293454 264.90353687 496.52113314 C266.34227935 496.51932971 267.78103906 496.52262798 269.21975522 496.53151552 C271.17459587 496.54287948 273.12952289 496.53398678 275.08437157 496.52409935 C276.71353683 496.52531699 276.71353683 496.52531699 278.37561452 496.52655923 C282.82314883 495.98093654 286.2099445 494.4545999 289.26820087 491.16063404 C291.05100611 486.49815343 290.83941969 481.98656859 290.81684875 477.03604126 C290.82349558 475.90062513 290.83014241 474.765209 290.83699065 473.59538633 C290.85567431 469.78281488 290.85301167 465.97055579 290.85049438 462.15794373 C290.85784852 459.42816374 290.86970314 456.69840766 290.88137817 453.96864319 C290.90417289 448.08755088 290.91605078 442.20651783 290.92050743 436.32538414 C290.92696677 427.82227612 290.94990033 419.31927527 290.97685073 410.81621043 C291.02012901 397.02046863 291.05008981 383.22473134 291.07168579 369.42893982 C291.09269236 356.0278756 291.11996464 342.62684829 291.15567017 329.22581482 C291.15786899 328.39973066 291.16006782 327.5736465 291.16233327 326.72252949 C291.17340284 322.57829465 291.18459567 318.43406015 291.19584978 314.2898258 C291.28904962 279.91101669 291.36064075 245.53219201 291.41812134 211.15330505 C290.25612794 211.1550138 290.25612794 211.1550138 289.07065994 211.15675706 C243.18463618 211.22385302 197.29861775 211.27534537 151.41255479 211.30650104 C145.90619082 211.31025328 140.39982695 211.31413624 134.89346313 211.31809998 C133.79721907 211.31888691 132.700975 211.31967384 131.57151141 211.32048462 C113.80809237 211.33354788 96.04470238 211.35720679 78.28130058 211.38476344 C60.06208832 211.41279203 41.8428913 211.42947592 23.62365836 211.43557054 C12.37629541 211.43969227 1.12901456 211.45272269 -10.11832312 211.47705445 C-17.82511964 211.49288021 -25.53187356 211.49771259 -33.23868515 211.49380919 C-37.6888715 211.49188271 -42.13891412 211.49489022 -46.58907509 211.51092148 C-50.66096056 211.52548331 -54.73260518 211.52628173 -58.80450157 211.51600174 C-60.27968655 211.51473055 -61.75488634 211.51856763 -63.230042 211.5279546 C-65.23168105 211.53995395 -67.23341101 211.53172867 -69.23506451 211.52244854 C-70.34802479 211.5235877 -71.46098508 211.52472686 -72.60767144 211.52590054 C-75.99280507 211.10182602 -77.86408876 210.18710237 -80.58187866 208.15330505 C-81.90446472 205.61082458 -81.90446472 205.61082458 -82.89364624 202.53611755 C-83.27366287 201.38482361 -83.6536795 200.23352966 -84.04521179 199.04734802 C-84.43500717 197.80356384 -84.82480255 196.55977966 -85.22640991 195.27830505 C-85.64378825 193.98893174 -86.06264929 192.70003752 -86.48292542 191.41160583 C-87.35854844 188.71496805 -88.2223399 186.0149403 -89.07675171 183.31150818 C-90.17200504 179.84622853 -91.28670549 176.38763076 -92.40906239 172.93104553 C-93.47951435 169.63216544 -94.54111158 166.33046017 -95.60140991 163.02830505 C-96.00132645 161.78452087 -96.40124298 160.54073669 -96.8132782 159.25926208 C-97.17753403 158.10796814 -97.54178986 156.95667419 -97.91708374 155.77049255 C-98.40076164 154.24851257 -98.40076164 154.24851257 -98.89421082 152.69578552 C-99.58187866 150.15330505 -99.58187866 150.15330505 -99.58187866 147.15330505 C-108.17965571 147.21469215 -116.7770862 147.29192359 -125.37452698 147.38901997 C-129.36728878 147.43362267 -133.35995091 147.47290051 -137.35287476 147.4997406 C-141.21101379 147.52587509 -145.06876722 147.56634774 -148.92666626 147.61649132 C-150.39369893 147.63309183 -151.86079819 147.64464836 -153.32791138 147.65091896 C-164.34712142 147.56640931 -164.34712142 147.56640931 -174.58187866 151.15330505 C-177.30565232 154.80603713 -177.95756439 157.4215915 -177.9621954 161.93675137 C-177.97063534 163.09949375 -177.97907528 164.26223613 -177.98777097 165.46021312 C-177.98176093 166.73335103 -177.97575088 168.00648894 -177.96955872 169.31820679 C-177.97373186 170.68768407 -177.97920928 172.0571579 -177.98587853 173.42662531 C-178.00035452 177.18913622 -177.99608177 180.95142848 -177.98871171 184.71395147 C-177.98398765 188.77197866 -177.99648312 192.82995803 -178.00672913 196.88796997 C-178.02393737 204.83761693 -178.02475296 212.78718491 -178.01951622 220.73684566 C-178.0154771 227.19740074 -178.016915 233.65793245 -178.02226448 240.1184864 C-178.02338711 241.49700162 -178.02338711 241.49700162 -178.02453243 242.90336563 C-178.02606388 244.77024758 -178.02760223 246.63712952 -178.02914739 248.50401146 C-178.04287973 266.01669547 -178.03742956 283.52933483 -178.02596218 301.04201782 C-178.01602871 317.06821006 -178.02897114 333.09428685 -178.05289637 349.12046128 C-178.07727091 365.5713811 -178.08689932 382.02224712 -178.08024365 398.47318465 C-178.0767478 407.71105879 -178.07900756 416.94884413 -178.09649467 426.18670464 C-178.11119608 434.05059903 -178.11187915 441.9143421 -178.09442376 449.77823346 C-178.08589437 453.79115936 -178.08381123 457.80381469 -178.09907532 461.81672668 C-178.11287506 465.4901083 -178.10822073 469.16298634 -178.08883608 472.83633847 C-178.08327243 474.79511774 -178.09738688 476.75392234 -178.11219019 478.71265358 C-178.05817007 487.24118613 -178.05817007 487.24118613 -173.58187866 494.15330505 C-170.06243473 496.14235775 -167.02873895 496.4066194 -163.02890015 496.42454529 C-161.94104721 496.4347319 -160.85319427 496.44491852 -159.7323761 496.45541382 C-157.98532127 496.45862389 -157.98532127 496.45862389 -156.20297241 496.4618988 C-153.73096473 496.48704775 -151.25895958 496.51244592 -148.78695679 496.53807068 C-144.89381503 496.5668723 -141.00071693 496.59089473 -137.10751343 496.60960388 C-133.34744221 496.63120394 -129.58787151 496.67062757 -125.82797241 496.7118988 C-124.66124496 496.71201462 -123.49451752 496.71213043 -122.29243469 496.71224976 C-121.20773392 496.72558853 -120.12303314 496.73892731 -119.00546265 496.75267029 C-118.05235703 496.75774094 -117.0992514 496.76281158 -116.11726379 496.76803589 C-113.13613378 497.22103905 -111.75154525 498.08917808 -109.58187866 500.15330505 C-109.08578491 502.30955505 -109.08578491 502.30955505 -109.14437866 504.65330505 C-109.14566772 505.42674255 -109.14695679 506.20018005 -109.14828491 506.99705505 C-109.69762665 509.72891668 -110.36765955 510.4756761 -112.58187866 512.15330505 C-115.19787598 512.54098511 -115.19787598 512.54098511 -118.37924194 512.55735779 C-119.57123199 512.57004196 -120.76322205 512.58272614 -121.99133301 512.59579468 C-123.2819162 512.59285904 -124.57249939 512.5899234 -125.90219116 512.5868988 C-127.24398055 512.59146247 -128.5857676 512.5967686 -129.92755127 512.6027832 C-132.7437385 512.61172317 -135.5596424 512.60928538 -138.37582397 512.59934998 C-141.96355564 512.58791925 -145.55029437 512.60797434 -149.13789558 512.63726711 C-151.91255805 512.65573745 -154.68698802 512.65531433 -157.46169662 512.64962959 C-159.4207452 512.64940387 -161.37977216 512.66622714 -163.33874512 512.68344116 C-172.05852849 512.61588839 -177.87958591 510.99655184 -185.26937866 506.52830505 C-191.47323603 500.15677587 -194.70243476 493.27435387 -194.71330643 484.45443439 C-194.71714757 483.28508297 -194.72098872 482.11573155 -194.72494626 480.91094524 C-194.72407978 479.625268 -194.7232133 478.33959077 -194.72232056 477.01495361 C-194.72490443 475.63610666 -194.72791765 474.25726045 -194.73132396 472.87841529 C-194.73939473 469.08529722 -194.74118357 465.29219807 -194.74192142 461.49907243 C-194.74377186 457.40962934 -194.75131918 453.32019608 -194.75805664 449.23075867 C-194.77164131 440.28646296 -194.77766497 431.34217174 -194.7820673 422.39786744 C-194.78482965 416.81300082 -194.789067 411.22813594 -194.79357147 405.64327049 C-194.8057646 390.18063497 -194.81606364 374.71800083 -194.81944656 359.2553606 C-194.81966613 358.26561538 -194.8198857 357.27587015 -194.82011192 356.25613264 C-194.82033019 355.2640166 -194.82054847 354.27190056 -194.82077336 353.24972039 C-194.82121683 351.23931046 -194.82166339 349.22890053 -194.82211304 347.2184906 C-194.82233447 346.22125745 -194.8225559 345.2240243 -194.82278404 344.19657197 C-194.82673158 328.03980263 -194.84418409 311.88307841 -194.86747256 295.7263265 C-194.89118909 279.13870258 -194.90364856 262.5511013 -194.90481448 245.96346015 C-194.9057311 236.65003133 -194.91148012 227.33666129 -194.92963409 218.02324867 C-194.94503918 210.09210571 -194.95015315 202.16103968 -194.94189599 194.2298846 C-194.93799086 190.18422651 -194.93891234 186.13872334 -194.95295334 182.09308434 C-194.96570052 178.38628539 -194.96448771 174.67975762 -194.95236263 170.972959 C-194.94948367 169.00342246 -194.96133526 167.0338812 -194.97378469 165.0643819 C-194.92177278 155.7320872 -193.95794191 147.98048227 -187.51937866 140.84080505 C-186.8271521 140.04029724 -186.13492554 139.23978943 -185.42172241 138.4150238 C-177.92345063 132.44322275 -169.97810835 131.57822875 -160.66781616 131.76268005 C-159.57216339 131.76833984 -158.47651062 131.77399963 -157.34765625 131.77983093 C-153.8835997 131.80203702 -150.42061712 131.85220467 -146.95687866 131.90330505 C-144.59361246 131.92339039 -142.23032988 131.94163757 -139.86703491 131.95799255 C-134.10495612 132.00184988 -128.34349415 132.06860225 -122.58187866 132.15330505 C-122.77324402 130.96348022 -122.77324402 130.96348022 -122.96847534 129.74961853 C-123.48612087 126.53012265 -124.00273198 123.31046137 -124.51937866 120.09080505 C-124.79298218 118.39020935 -124.79298218 118.39020935 -125.07211304 116.65525818 C-125.57988075 113.48863409 -126.08307845 110.32135327 -126.58187866 107.15330505 C-126.69515503 106.43553894 -126.8084314 105.71777283 -126.92514038 104.97825623 C-128.05702229 97.49207526 -129.16240751 89.62922515 -124.58187866 83.15330505 C-119.06698326 77.78746088 -112.57902261 76.84018119 -105.19320679 75.82469177 C-103.96276894 75.64868942 -103.96276894 75.64868942 -102.70747375 75.46913147 C-100.01011742 75.08482846 -97.31169486 74.7086982 -94.61312866 74.33299255 C-92.730304 74.06718216 -90.84753293 73.80099191 -88.96481323 73.53443909 C-85.02467446 72.97786524 -81.08401089 72.42521909 -77.14291382 71.87547302 C-72.09819743 71.17155911 -67.05475873 70.45893627 -62.01166534 69.74349785 C-58.12587948 69.19304161 -54.23952585 68.64668538 -50.35298157 68.10161209 C-48.49333206 67.84040503 -46.63384292 67.57805348 -44.77452087 67.3145256 C-42.17374923 66.94664476 -39.57227992 66.58416604 -36.97055054 66.22312927 C-35.82482826 66.05952911 -35.82482826 66.05952911 -34.65596008 65.8926239 C-30.59913494 65.33596111 -26.67624021 65.04272439 -22.58187866 65.15330505 C-22.59527031 64.23425133 -22.59527031 64.23425133 -22.6089325 63.29663086 C-22.65752927 57.39534752 -22.38891376 51.61414615 -21.81234741 45.7431488 C-21.73067825 44.89080154 -21.64900909 44.03845428 -21.56486511 43.16027832 C-21.39173365 41.37441603 -21.21598175 39.58880596 -21.03768921 37.80345154 C-20.76977815 35.09484389 -20.51831378 32.3850201 -20.26742554 29.67478943 C-20.09590403 27.9266437 -19.92341059 26.17859301 -19.74984741 24.4306488 C-19.64183052 23.23495522 -19.64183052 23.23495522 -19.53163147 22.0151062 C-18.82826998 15.25181025 -17.94969325 7.75773737 -12.51937866 3.15330505 C-8.1176903 0.15641085 -5.20632372 -0.02084915 0 0 Z M122.4848938 59.78041077 C121.48821088 59.92001787 120.49152796 60.05962498 119.46464252 60.2034626 C118.37356788 60.35916159 117.28249323 60.51486057 116.15835571 60.67527771 C114.99977397 60.8383737 113.84119223 61.00146969 112.64750195 61.16950798 C109.44365741 61.62105912 106.24017311 62.075074 103.03682113 62.53010368 C99.61129875 63.01605589 96.18531783 63.49875384 92.75938416 63.98179626 C86.87769533 64.81151423 80.99627848 65.64313656 75.11505127 66.47612 C65.92044289 67.77837163 56.72537166 69.07733369 47.53018188 70.37547302 C46.7668847 70.4832357 46.00358751 70.59099839 45.21716011 70.70202661 C42.12483404 71.13860104 39.03250763 71.57517301 35.94017571 72.01170599 C31.27268501 72.67061774 26.60523881 73.32984373 21.93782419 73.98929417 C1.74225073 76.84255457 -18.45549628 79.67958657 -38.65609741 82.49705505 C-41.02398802 82.82748063 -43.39187744 83.15791465 -45.75976562 83.48835754 C-55.64338727 84.86733718 -65.52720092 86.24490884 -75.41156292 87.61857224 C-79.37549031 88.16989281 -83.33917899 88.72291461 -87.30280495 89.27639771 C-89.11802047 89.52946482 -90.93334449 89.78175518 -92.74878502 90.03320312 C-95.19627463 90.37222907 -97.64338695 90.71385932 -100.09042358 91.05613708 C-101.15379063 91.20240005 -101.15379063 91.20240005 -102.23863983 91.35161781 C-105.40439415 91.79705988 -108.50185004 92.28581495 -111.58187866 93.15330505 C-111.15488551 101.78151159 -110.24582943 110.2846107 -109.08187866 118.84080505 C-108.95128052 119.80905212 -108.82068237 120.77729919 -108.68612671 121.77488708 C-107.95904922 127.03595477 -107.95904922 127.03595477 -106.58187866 132.15330505 C-105.46168335 132.19068787 -104.34148804 132.22807068 -103.18734741 132.2665863 C-101.71465776 132.33224763 -100.242003 132.39869492 -98.76937866 132.46580505 C-98.03139038 132.48836365 -97.2934021 132.51092224 -96.53305054 132.53416443 C-91.09315425 132.8049285 -91.09315425 132.8049285 -89.0118103 134.22312927 C-86.90926957 137.06121824 -85.97483613 140.22166285 -84.91000366 143.5478363 C-84.66653702 144.28408234 -84.42307037 145.02032837 -84.17222595 145.77888489 C-83.38342317 148.17177133 -82.60756829 150.56863925 -81.83187866 152.96580505 C-81.29444288 154.60382195 -80.75627352 156.24159833 -80.21737671 157.87913513 C-76.92184579 167.91830397 -73.67534282 177.97513668 -70.5496521 188.06858826 C-69.6176086 191.91139626 -69.6176086 191.91139626 -67.58187866 195.15330505 C-65.58229503 195.19411288 -63.58142612 195.19584862 -61.58187866 195.15330505 C-61.61946289 194.45189896 -61.65704712 193.75049286 -61.69577026 193.02783203 C-62.05345423 186.33751298 -62.40672275 179.64697602 -62.75533295 172.95617771 C-62.93459819 169.51842129 -63.11542484 166.08076351 -63.30014038 162.64329529 C-64.70824986 136.39127118 -64.70824986 136.39127118 -64.86312866 126.0556488 C-64.89503296 124.18960999 -64.89503296 124.18960999 -64.92758179 122.28587341 C-64.54538216 118.82259418 -63.51040946 117.00703516 -61.58187866 114.15330505 C-61.58187866 113.49330505 -61.58187866 112.83330505 -61.58187866 112.15330505 C-60.79812866 111.84393005 -60.01437866 111.53455505 -59.20687866 111.21580505 C-56.65857738 110.22455467 -56.65857738 110.22455467 -54.58187866 109.15330505 C-52.85789428 108.9544694 -51.12739113 108.81112566 -49.3959198 108.69422913 C-48.29369678 108.61841299 -47.19147375 108.54259686 -46.05585003 108.46448326 C-44.83701028 108.38580324 -43.61817053 108.30712322 -42.36239624 108.22605896 C-41.07600911 108.14042505 -39.78962198 108.05479115 -38.46425343 107.96656227 C-22.22600295 106.89741689 -5.97603674 106.01954165 10.2729876 105.13315535 C14.7639259 104.88773126 19.25473487 104.63996152 23.74555969 104.39247131 C32.19829755 103.92698108 40.65114489 103.46351226 49.10403651 103.00082362 C58.74911252 102.47277522 68.39405968 101.94239118 78.03899825 101.41183925 C97.83189991 100.32311586 117.62495655 99.23723358 137.41812134 98.15330505 C136.72892143 92.91994242 136.03505657 87.68722784 135.33682251 82.45506287 C135.09985436 80.67430972 134.8641717 78.89338502 134.62979126 77.11228943 C134.29306835 74.55518864 133.9517577 71.99873635 133.60952759 69.44236755 C133.45321617 68.24385666 133.45321617 68.24385666 133.29374695 67.02113342 C132.80418879 62.96167341 132.80418879 62.96167341 131.41812134 59.15330505 C128.28611224 59.15330505 125.56086642 59.34530093 122.4848938 59.78041077 Z M177.45864868 110.64683533 C176.48401137 110.69992151 175.50937407 110.75300769 174.50520229 110.80770254 C171.25470359 110.98527985 168.00438587 111.16597418 164.75405884 111.34666443 C162.41794346 111.47492961 160.08181749 111.60300191 157.74568176 111.730896 C151.41360386 112.07809935 145.0816775 112.42799885 138.74977493 112.77838326 C132.7998998 113.10721414 126.84991399 113.43402482 120.89992821 113.76084656 C109.11895133 114.40801963 97.33808285 115.05714452 85.55728149 115.70750427 C74.11690828 116.33906646 62.67648476 116.9697048 51.23599243 117.59910583 C50.53017627 117.63793678 49.8243601 117.67676772 49.09715557 117.71677536 C45.55609659 117.91158336 42.01503661 118.10637325 38.47397614 118.30115414 C9.12186967 119.91573049 -20.23005485 121.53359845 -49.58187866 123.15330505 C-49.58187866 147.17412935 -47.91431426 171.16946434 -46.58187866 195.15330505 C34.92812134 195.15330505 116.43812134 195.15330505 200.41812134 195.15330505 C199.65125566 175.49931469 199.65125566 175.49931469 198.69937134 155.85643005 C198.60516907 154.09610443 198.60516907 154.09610443 198.50906372 152.30021667 C198.37892477 149.88124183 198.24787338 147.46231588 198.11587524 145.04344177 C197.91450697 141.33677386 197.71900087 137.62982254 197.52359009 133.9228363 C197.39503664 131.54651511 197.26614374 129.17021225 197.13687134 126.79393005 C197.07954834 125.69510498 197.02222534 124.59627991 196.96316528 123.4641571 C196.87802673 121.93404999 196.87802673 121.93404999 196.79116821 120.37303162 C196.71908142 119.03719025 196.71908142 119.03719025 196.64553833 117.67436218 C196.41429693 115.11090916 195.96908421 112.6657945 195.41812134 110.15330505 C189.41048015 110.0984397 183.45607866 110.30933375 177.45864868 110.64683533 Z M247.41812134 147.15330505 C246.84246012 152.54209117 246.27302595 157.93148723 245.70913696 163.32151794 C245.51680126 165.15177283 245.3228201 166.98185564 245.12710571 168.81175232 C244.84468692 171.45510579 244.56836111 174.09903931 244.29312134 176.7431488 C244.20562622 177.54977463 244.1181311 178.35640045 244.02798462 179.18746948 C243.94790161 179.96759903 243.8678186 180.74772858 243.78530884 181.55149841 C243.71424927 182.22434372 243.6431897 182.89718903 243.56997681 183.59042358 C243.34198294 187.43830117 243.41812134 191.29867886 243.41812134 195.15330505 C259.25812134 195.15330505 275.09812134 195.15330505 291.41812134 195.15330505 C291.50062134 188.84205505 291.58312134 182.53080505 291.66812134 176.02830505 C291.70453735 174.04685486 291.74095337 172.06540466 291.7784729 170.02391052 C291.79016401 168.43944886 291.80035484 166.85497512 291.80874634 165.27049255 C291.83944214 164.05341614 291.83944214 164.05341614 291.87075806 162.81175232 C291.87403445 157.44994185 291.02956111 154.37839795 287.41812134 150.15330505 C279.94229932 145.82567507 271.29119579 146.81969895 262.91812134 146.96580505 C261.41292637 146.98087645 259.90771683 146.99456052 258.40249634 147.00682068 C254.74073193 147.03963818 251.07952113 147.09128517 247.41812134 147.15330505 Z " fill="#000000" transform="translate(199.58187866210938,-0.1533050537109375)"/>
<path d="M0 0 C0.95734004 -0.00384115 1.91468008 -0.00768229 2.90103042 -0.01163983 C4.48198649 -0.01034011 4.48198649 -0.01034011 6.09488106 -0.00901413 C7.77177425 -0.01347081 7.77177425 -0.01347081 9.48254406 -0.01801753 C13.2481161 -0.02672537 17.01365642 -0.02821453 20.77923775 -0.02970505 C23.47104227 -0.03433169 26.16284387 -0.03933536 28.85464668 -0.04475021 C36.18101572 -0.05833627 43.50737929 -0.06435853 50.83375883 -0.06876087 C55.40699791 -0.07152253 59.98023487 -0.07575972 64.55347252 -0.08026505 C77.21180972 -0.0924575 89.87014522 -0.10275723 102.52848816 -0.10614014 C103.33875047 -0.1063597 104.14901278 -0.10657927 104.98382849 -0.10680549 C105.79604264 -0.10702377 106.6082568 -0.10724204 107.4450835 -0.10746694 C109.09097346 -0.1079104 110.73686342 -0.10835697 112.38275337 -0.10880661 C113.19917376 -0.10902804 114.01559415 -0.10924947 114.85675456 -0.10947761 C128.09019109 -0.11342691 141.3235726 -0.13088507 154.55698787 -0.15416613 C168.13872823 -0.17786747 181.72044096 -0.19034141 195.30220234 -0.19150805 C202.92984076 -0.19242544 210.55740748 -0.19819382 218.18502617 -0.21632767 C224.67911683 -0.23171216 231.17311362 -0.23685889 237.66721903 -0.22858956 C240.9812768 -0.2246773 244.29510546 -0.22726585 247.60914803 -0.23964691 C251.20042275 -0.25227958 254.79120801 -0.24653661 258.38247871 -0.23606491 C259.43198798 -0.24412132 260.48149725 -0.25217772 261.56280982 -0.26047826 C267.1636157 -0.22213404 271.19530397 -0.03893179 275.36566353 4.13142776 C275.48124654 6.44089491 275.52539592 8.75394905 275.54266548 11.06624222 C275.54923668 11.79148087 275.55580788 12.51671951 275.5625782 13.26393509 C275.58235723 15.674194 275.5939844 18.08439046 275.60394478 20.49470901 C275.60802031 21.31624151 275.61209583 22.13777401 275.61629486 22.98420143 C275.63717602 27.33299765 275.6514684 31.68176213 275.66082954 36.03059769 C275.67189379 40.52674087 275.70628761 45.02238909 275.74600124 49.51835728 C275.77212848 52.97131658 275.78051793 56.42415734 275.78411102 59.8772068 C275.78898771 61.53463137 275.80063243 63.19205028 275.81914902 64.84937859 C275.84345717 67.16946238 275.84259129 69.48825799 275.83563423 71.80842972 C275.85484932 72.83645958 275.85484932 72.83645958 275.87445259 73.88525772 C275.84254167 76.80398454 275.56574832 78.80713627 274.02318287 81.30728054 C269.75533637 84.23677205 265.41509563 83.68164402 260.35760689 83.63936234 C259.2217839 83.6456023 258.0859609 83.65184226 256.91571903 83.65827131 C253.09543963 83.67427396 249.27579184 83.661568 245.45550728 83.64900589 C242.72251246 83.65222259 239.98954479 83.66139937 237.25656319 83.67024612 C230.59547833 83.68804904 223.93457357 83.68418355 217.27348161 83.67259556 C211.86074293 83.66356845 206.44805479 83.6623341 201.03531075 83.66669083 C200.26545717 83.66730376 199.4956036 83.66791669 198.70242113 83.6685482 C197.13856417 83.66982708 195.57470723 83.67112393 194.01085031 83.67243856 C179.34049008 83.68384955 164.67022976 83.67072255 149.99988592 83.6492371 C137.40724351 83.63136562 124.81474859 83.63446958 112.22210884 83.65291214 C97.60488042 83.67430973 82.9877396 83.68275086 68.3704977 83.67046309 C66.81233725 83.66918886 65.25417679 83.66793138 63.69601631 83.66669083 C62.54599653 83.66576517 62.54599653 83.66576517 61.37274402 83.66482082 C55.96540441 83.66136457 50.55812028 83.66720216 45.15078926 83.67660904 C38.56259342 83.68781809 31.97458824 83.68481221 25.38641429 83.66348606 C22.02376748 83.65296044 18.66170271 83.65102527 15.29901695 83.66208267 C11.65693056 83.67295746 8.01574841 83.65937084 4.37372017 83.63936234 C2.7727645 83.65274667 2.7727645 83.65274667 1.13946629 83.66640139 C-5.96635595 83.59029278 -5.96635595 83.59029278 -9.29101467 81.3064394 C-11.26464781 78.11087223 -11.13557298 75.57759633 -11.13604546 71.840168 C-11.14144844 71.11288498 -11.14685143 70.38560196 -11.15241814 69.63628006 C-11.16490533 67.23711072 -11.14841741 64.83914135 -11.13043022 62.44002151 C-11.13058519 60.77140617 -11.13207389 59.10279046 -11.13484001 57.4341774 C-11.13622393 53.9396254 -11.12366609 50.44548387 -11.10088921 46.95100784 C-11.07248231 42.46943858 -11.07524781 37.98855018 -11.08797932 33.50693035 C-11.09492997 30.06254626 -11.08715467 26.61831988 -11.07472229 23.17395592 C-11.07020334 21.52132713 -11.06987486 19.86868144 -11.07378769 18.2160511 C-11.07669453 15.90811111 -11.06022033 13.60111392 -11.03838921 11.293293 C-11.03298622 9.97965271 -11.02758324 8.66601242 -11.02201653 7.31256485 C-10.63433647 4.13142776 -10.63433647 4.13142776 -9.29658318 2.24631119 C-6.2425386 0.19793674 -3.56230896 0.00535959 0 0 Z M4.36566353 16.13142776 C4.36566353 32.96142776 4.36566353 49.79142776 4.36566353 67.13142776 C88.84566353 67.13142776 173.32566353 67.13142776 260.36566353 67.13142776 C260.36566353 50.30142776 260.36566353 33.47142776 260.36566353 16.13142776 C175.88566353 16.13142776 91.40566353 16.13142776 4.36566353 16.13142776 Z " fill="#000000" transform="translate(123.63433647155762,355.8685722351074)"/>
<path d="M0 0 C1.14020426 -0.00935994 1.14020426 -0.00935994 2.30344296 -0.01890898 C4.8524311 -0.0348734 7.40046753 -0.02222178 9.94946289 -0.00964355 C11.77605752 -0.01506316 13.60264778 -0.02218491 15.42922974 -0.03088379 C20.39202184 -0.04913932 25.35448181 -0.0420404 30.31727982 -0.02936745 C35.50710201 -0.01925134 40.69689546 -0.02862926 45.88671875 -0.03491211 C54.60267247 -0.04219256 63.31849068 -0.03259035 72.03442383 -0.0135498 C82.11606296 0.00821967 92.19737853 0.00116858 102.27900982 -0.02085543 C110.92964037 -0.03899807 119.58017342 -0.0415733 128.23081684 -0.03110075 C133.39977129 -0.02485958 138.56857359 -0.02404733 143.73751831 -0.0372467 C148.59673102 -0.04878804 153.45552595 -0.04081089 158.31469345 -0.01766968 C160.09972311 -0.0123734 161.88478784 -0.01391203 163.66980362 -0.02272034 C166.1034257 -0.0336235 168.53570235 -0.01997691 170.96923828 0 C172.03324309 -0.01338433 172.03324309 -0.01338433 173.11874294 -0.02703905 C176.511719 0.02712625 178.21393514 0.29653928 180.92332458 2.41248322 C183.54003822 5.92443816 182.96144409 8.21650998 182.48461914 12.50793457 C181.09821253 14.65686481 180.22016891 15.25981281 177.83029842 16.06598377 C174.599034 16.67478818 171.49231817 16.63746337 168.20375061 16.64164734 C167.46882132 16.6439129 166.73389202 16.64617845 165.97669214 16.64851266 C163.51325406 16.65484448 161.0498711 16.65402383 158.58642578 16.65319824 C156.82057118 16.65619021 155.05471722 16.65959283 153.28886414 16.66337585 C148.49139413 16.67221546 143.69394195 16.67455393 138.89646459 16.67519164 C134.89286944 16.67614087 130.88927845 16.67981926 126.88568491 16.68336374 C117.44152868 16.6915079 107.99738199 16.69394798 98.55322266 16.6932373 C88.80683276 16.69263628 79.06049816 16.7031931 69.31412226 16.71898097 C60.94884959 16.7320494 52.58359501 16.73742151 44.2183122 16.7367819 C39.22094653 16.73652673 34.22363001 16.73938804 29.22627449 16.74995995 C24.5272333 16.75962936 19.8282884 16.75972805 15.12924385 16.75244331 C13.40429036 16.75139608 11.67933091 16.75376855 9.95438766 16.75980377 C7.60030181 16.76750705 5.24654984 16.76289005 2.89247131 16.75517273 C0.91610483 16.75598988 0.91610483 16.75598988 -1.10018826 16.75682354 C-5.53256145 16.43380551 -8.35784011 15.66547532 -11.51538086 12.50793457 C-12.20038518 5.42955658 -12.20038518 5.42955658 -9.95628357 2.41028595 C-6.70088985 -0.12685029 -3.96001479 -0.04981382 0 0 Z " fill="#000000" transform="translate(170.515380859375,389.4920654296875)"/>
</svg>
