<?xml version="1.0" encoding="UTF-8"?>
<svg version="1.1" xmlns="http://www.w3.org/2000/svg" width="512" height="512">
<path d="M0 0 C12.76612842 9.51600026 20.50950292 21.82945633 23.63671875 37.50390625 C24.5727396 44.63999183 24.66613906 51.71468024 23.0625 58.75 C23.85914063 58.82476562 24.65578125 58.89953125 25.4765625 58.9765625 C30.20293017 59.99597513 34.1408471 61.94848461 38.4375 64.125 C39.31801025 64.56980713 40.19852051 65.01461426 41.10571289 65.47290039 C81.82079179 86.53470663 112.05629727 123.92415277 125.90234375 167.43359375 C127.47671631 173.01792991 128.64880981 178.6934538 129.8125 184.375 C130.12900513 185.91232788 130.12900513 185.91232788 130.4519043 187.48071289 C133.26738198 201.95321552 133.21707689 216.37720611 133.26173019 231.06451988 C133.27363187 234.63248889 133.29310424 238.20034288 133.31484985 241.76826477 C133.37614798 251.90235628 133.43073886 262.036428 133.46386719 272.1706543 C133.48473877 278.39081639 133.51995583 284.61075481 133.56462479 290.83078957 C133.57881728 293.19874265 133.58751451 295.56673513 133.59067917 297.93472862 C133.59555474 301.22845595 133.61861722 304.52157971 133.64599609 307.81518555 C133.64298996 308.79745117 133.63998383 309.7797168 133.6368866 310.79174805 C133.64797958 311.68443893 133.65907257 312.57712982 133.67050171 313.49687195 C133.67546693 314.66342331 133.67546693 314.66342331 133.68053246 315.85354137 C133.91287747 318.16024675 133.91287747 318.16024675 137.0625 319.75 C139.51002272 320.08888776 141.91720474 320.34727998 144.375 320.5625 C161.38597868 322.44104844 175.953365 329.76883969 187.0625 342.9609375 C196.45314411 356.05648417 200.99966488 371.24265287 198.5234375 387.23046875 C197.16956115 394.17094475 195.46969863 400.54010572 192.0625 406.75 C191.58039063 407.63300781 191.09828125 408.51601563 190.6015625 409.42578125 C182.67892282 422.87195141 170.43218255 431.33336389 155.61172485 435.78697205 C150.42841571 437.05652302 145.36821547 437.01525085 140.05664062 436.97705078 C138.44554916 436.97748886 138.44554916 436.97748886 136.8019104 436.97793579 C133.27410628 436.97654948 129.74651694 436.9610211 126.21875 436.9453125 C123.76395788 436.94157989 121.30916426 436.93873409 118.85437012 436.93673706 C112.40999195 436.92912017 105.96570469 436.90948833 99.5213623 436.8873291 C92.93873321 436.86682879 86.35608935 436.8577264 79.7734375 436.84765625 C66.869753 436.82624064 53.96613135 436.79251549 41.0625 436.75 C40.99914963 437.43457779 40.93579926 438.11915558 40.87052917 438.82447815 C40.74162041 440.17315224 40.74162041 440.17315224 40.61010742 441.54907227 C40.48414436 442.88531395 40.48414436 442.88531395 40.3556366 444.24855042 C38.76817601 457.7949744 30.80981835 469.72595274 22.0625 479.75 C21.54300781 480.36488281 21.02351563 480.97976563 20.48828125 481.61328125 C9.60414013 493.53922933 -7.6584889 501.67165251 -23.66430664 502.97143555 C-46.74945317 503.89092036 -66.32361949 499.58341605 -83.9375 483.75 C-84.85402344 482.97269531 -84.85402344 482.97269531 -85.7890625 482.1796875 C-96.63123261 472.32766992 -104.23649658 456.99165442 -106.9375 442.75 C-106.96413202 440.75017732 -106.9684822 438.74976001 -106.9375 436.75 C-107.49242724 436.75368717 -108.04735449 436.75737434 -108.61909771 436.76117325 C-122.17620565 436.84984692 -135.73326218 436.91560938 -149.29059887 436.95724869 C-155.84708195 436.97806647 -162.40335472 437.00627802 -168.9597168 437.05175781 C-175.29452374 437.09542254 -181.62912919 437.11918074 -187.96407509 437.12950897 C-190.37323487 437.13686338 -192.78238443 437.15122424 -195.19145775 437.17292023 C-215.80046545 437.35103492 -232.85318209 435.28623165 -248.515625 420.421875 C-259.61938856 408.17191649 -265.42133806 393.23904153 -265.14453125 376.60546875 C-263.95587966 360.2110478 -257.27875836 345.6938171 -244.9375 334.75 C-233.85407195 326.02325875 -222.25827181 321.72027709 -208.27978516 320.43188477 C-204.73895142 320.09113324 -202.9668925 319.769595 -199.9375 317.75 C-199.48206694 315.78105267 -199.48206694 315.78105267 -199.55223083 313.47477722 C-199.54258301 312.57681931 -199.53293518 311.67886139 -199.522995 310.75369263 C-199.52757217 309.76529388 -199.53214935 308.77689514 -199.53686523 307.75854492 C-199.52988617 306.71909225 -199.5229071 305.67963959 -199.51571655 304.60868835 C-199.49562212 301.14920091 -199.49623943 297.69000963 -199.49609375 294.23046875 C-199.48431873 291.81740009 -199.47095421 289.40433871 -199.45606995 286.99128723 C-199.41975431 280.60916724 -199.39966194 274.22711148 -199.38452148 267.84490967 C-199.35979582 257.69803744 -199.31937246 247.5513079 -199.26262093 237.40456581 C-199.24651977 233.8860643 -199.2425325 230.36770037 -199.23960876 226.84916687 C-199.18404082 209.79102846 -198.83554847 192.41715739 -194.8125 175.75 C-194.60077148 174.85321533 -194.38904297 173.95643066 -194.17089844 173.0324707 C-183.64806258 130.68582641 -156.10037491 93.86510519 -118.8293457 71.27856445 C-109.55107074 65.83395868 -100.00075934 61.52533289 -89.9375 57.75 C-89.98390625 56.7084375 -90.0303125 55.666875 -90.078125 54.59375 C-90.63138642 36.71057387 -86.82130061 22.27846221 -75.375 8.0625 C-55.85636675 -12.66191755 -23.46031363 -15.82815427 0 0 Z M-50.25 32 C-54.67450863 37.63009681 -56.00616122 42.67126949 -55.9375 49.75 C-54.75329468 49.69670532 -54.75329468 49.69670532 -53.54516602 49.64233398 C-38.94965584 49.00589877 -24.50179037 48.37998716 -9.9375 49.75 C-10.11931982 41.68381163 -11.74119226 36.07847492 -17.42578125 30.21484375 C-23.19630573 25.10039957 -28.45322691 24.28537406 -35.93359375 24.44140625 C-42.03690441 25.06840435 -46.10141567 27.56740501 -50.25 32 Z M-133.13916016 127.68115234 C-138.01754015 133.29334242 -142.10441312 139.39074151 -145.9375 145.75 C-146.31342285 146.37229492 -146.6893457 146.99458984 -147.07666016 147.63574219 C-154.47655048 160.13435747 -159.19319429 173.39003714 -162.25 187.5625 C-162.40952148 188.30209961 -162.56904297 189.04169922 -162.73339844 189.80371094 C-164.75000437 199.90454725 -165.08474694 210.13004759 -165.0793457 220.40258789 C-165.08455734 222.0465731 -165.08455734 222.0465731 -165.08987427 223.72377014 C-165.0971711 226.08080106 -165.10254844 228.43783857 -165.10616493 230.79487801 C-165.11339852 234.53326456 -165.12911304 238.27152496 -165.14750671 242.00987244 C-165.19967314 252.63100562 -165.24840071 263.25203736 -165.26342773 273.87329102 C-165.27274217 280.39061494 -165.30290795 286.9076673 -165.34474754 293.42486382 C-165.35701386 295.89702308 -165.36218684 298.36922863 -165.35994911 300.84141731 C-165.35758481 304.30356797 -165.37984576 307.76478292 -165.4074707 311.22680664 C-165.39756859 312.73818207 -165.39756859 312.73818207 -165.38746643 314.28009033 C-165.53806755 325.83994292 -169.50263387 335.2242887 -177.59765625 343.43359375 C-186.02547617 351.13189851 -195.33483685 353.36310428 -206.4375 354.5625 C-215.47463311 355.72916068 -221.03894978 358.72390081 -226.6796875 365.875 C-230.48980413 371.55467697 -231.49615253 376.52486871 -230.5 383.30078125 C-228.70621368 391.11122587 -224.50752425 396.22316765 -217.9375 400.75 C-214.0709571 402.60210866 -210.9930211 403.00173557 -206.72235394 403.00726891 C-204.83378785 403.01694224 -204.83378785 403.01694224 -202.90706891 403.026811 C-201.51240161 403.02386881 -200.11773471 403.02073338 -198.72306824 403.01742554 C-197.23952402 403.0211621 -195.75598176 403.02576365 -194.27244264 403.03115618 C-190.19459516 403.04340084 -186.11682964 403.04312399 -182.03896797 403.04076743 C-177.64143918 403.04035963 -173.2439368 403.05139486 -168.84642029 403.06088257 C-160.23036374 403.07750158 -151.61433456 403.08299252 -142.99826332 403.08410732 C-135.99520475 403.08505737 -128.99215522 403.0891655 -121.9890995 403.09550858 C-102.13765074 403.11312345 -82.28622361 403.12234706 -62.43476697 403.12084763 C-61.36437737 403.12076772 -60.29398776 403.1206878 -59.19116211 403.12060547 C-58.11946678 403.12052371 -57.04777146 403.12044195 -55.94360051 403.12035771 C-38.57372906 403.11954474 -21.20394431 403.13868449 -3.83409794 403.1668822 C13.99770085 403.1956016 31.82945734 403.20942302 49.66127986 403.20769465 C59.67387502 403.20703042 69.68637929 403.2125371 79.69895363 403.23405075 C88.22373605 403.25225012 96.74838638 403.25662012 105.27317981 403.2430319 C109.62254543 403.23649596 113.97165754 403.23640757 118.32099915 403.2537384 C122.30410058 403.26944662 126.28674704 403.26662878 130.26983722 403.24917014 C131.70925732 403.24609526 133.14871119 403.24975109 134.58809147 403.26089029 C143.69875874 403.32671615 150.0550305 402.88891727 157.26953125 396.92578125 C162.60816347 390.72985042 165.46979416 384.9988464 165.0625 376.6875 C163.96131382 369.13148843 159.83718705 363.64637664 153.9140625 358.99609375 C147.70078394 354.8145835 141.24020759 354.36158676 134.00073242 353.58447266 C128.38425189 352.9247946 123.92955672 351.57772842 119.0625 348.75 C118.051875 348.193125 117.04125 347.63625 116 347.0625 C107.84009613 340.63874589 102.26711177 332.96382604 100.0625 322.75 C99.96936108 321.22745505 99.92516916 319.70148994 99.91773987 318.17611694 C99.91084137 317.26266006 99.90394287 316.34920319 99.89683533 315.4080658 C99.89291527 313.9151577 99.89291527 313.9151577 99.88891602 312.39208984 C99.882229 311.33777267 99.87554199 310.28345551 99.86865234 309.19718933 C99.85459886 306.90497366 99.84270576 304.61274398 99.83270454 302.32050705 C99.81625508 298.67745731 99.79300876 295.0345091 99.76780701 291.39151001 C99.69718785 281.03189198 99.63730779 270.67222969 99.58569336 260.3125 C99.55363021 253.97301136 99.51227553 247.63363533 99.46549797 241.29423904 C99.44962417 238.89205611 99.43723644 236.48984723 99.42859077 234.08762741 C99.36708827 217.22465557 99.24332257 200.23740767 94.9375 183.8125 C94.61881958 182.58128418 94.61881958 182.58128418 94.29370117 181.32519531 C88.95228665 161.71315491 79.36852975 144.09506771 66.0625 128.75 C65.35480469 127.92113281 64.64710938 127.09226563 63.91796875 126.23828125 C41.55651164 100.66554658 9.8135959 84.21531242 -24.23828125 81.87890625 C-25.57439453 81.81509766 -25.57439453 81.81509766 -26.9375 81.75 C-28.32001953 81.67072266 -28.32001953 81.67072266 -29.73046875 81.58984375 C-69.64035941 80.40235671 -106.54007834 98.63602088 -133.13916016 127.68115234 Z M-72.9375 436.75 C-68.84547276 450.39009081 -62.1878321 458.70352798 -49.9375 465.75 C-41.53458563 470.10586277 -30.96040301 469.96067203 -21.84765625 468.12890625 C-11.61776287 464.82657338 -3.47608816 458.38787401 2.625 449.6328125 C4.65178432 445.56822872 5.75739969 441.10033438 7.0625 436.75 C-19.3375 436.75 -45.7375 436.75 -72.9375 436.75 Z " fill="#000000" transform="translate(288.9375,9.25)"/>
</svg>
