<?xml version="1.0" encoding="UTF-8"?>
<svg version="1.1" xmlns="http://www.w3.org/2000/svg" width="512" height="512">
<path d="M0 0 C1.40251469 -0.00417941 2.80502599 -0.00966025 4.20753109 -0.01631981 C8.03837352 -0.0307136 11.8689997 -0.02654883 15.69985366 -0.019153 C19.84038902 -0.01440851 23.98087845 -0.02694248 28.12139893 -0.03717041 C36.22410715 -0.05433881 44.32673775 -0.05520248 52.42945944 -0.04995751 C59.01760828 -0.04591086 65.60573424 -0.04736524 72.19388199 -0.05270576 C73.60208686 -0.0538284 73.60208686 -0.0538284 75.03874031 -0.05497371 C76.9461162 -0.05650524 78.85349209 -0.05804359 80.76086797 -0.05958868 C98.63524049 -0.07330668 116.5095692 -0.06788099 134.38394071 -0.05640347 C150.72262064 -0.04647222 167.0611873 -0.05941112 183.39984976 -0.08333766 C200.19222034 -0.1077426 216.9845382 -0.11733307 233.77692616 -0.11068493 C243.19824017 -0.10719576 252.6194671 -0.10940479 262.04076767 -0.12693596 C270.06100686 -0.14167539 278.08109763 -0.14227066 286.10133396 -0.12486505 C290.18997103 -0.11636692 294.27834317 -0.11417623 298.36696625 -0.1295166 C302.11632495 -0.14340943 305.8651929 -0.13854229 309.61452354 -0.11927737 C311.59944856 -0.11376841 313.58439886 -0.12775047 315.56927574 -0.14263147 C330.20069446 -0.02317438 341.05626763 4.80602234 351.7204895 14.70018005 C362.10316211 25.67055111 364.42664829 37.76890751 364.35816956 52.41719055 C364.36234897 53.81970524 364.36782981 55.22221654 364.37448937 56.62472165 C364.38888315 60.45556408 364.38471839 64.28619025 364.37732255 68.11704421 C364.37257807 72.25757957 364.38511204 76.398069 364.39533997 80.53858948 C364.41250837 88.6412977 364.41337203 96.74392831 364.40812706 104.84664999 C364.40408041 111.43479883 364.4055348 118.02292479 364.41087532 124.61107254 C364.41162374 125.54987579 364.41237216 126.48867904 364.41314327 127.45593087 C364.41467479 129.36330676 364.41621314 131.27068264 364.41775823 133.17805852 C364.43147624 151.05243104 364.42605055 168.92675975 364.41457302 186.80113126 C364.40464178 203.13981119 364.41758068 219.47837785 364.44150721 235.81704031 C364.46591215 252.60941089 364.47550263 269.40172875 364.46885449 286.19411671 C364.46536532 295.61543072 364.46757435 305.03665765 364.48510551 314.45795822 C364.49984495 322.47819741 364.50044021 330.49828818 364.4830346 338.51852451 C364.47453648 342.60716158 364.47234579 346.69553372 364.48768616 350.7841568 C364.50157899 354.5335155 364.49671185 358.28238345 364.47744692 362.0317141 C364.47193797 364.01663911 364.48592002 366.00158941 364.50080103 367.98646629 C364.38134393 382.61788501 359.55214721 393.47345818 349.6579895 404.13768005 C338.68761844 414.52035266 326.58926205 416.84383884 311.940979 416.77536011 C310.53846432 416.77953952 309.13595301 416.78502036 307.73344791 416.79167992 C303.90260548 416.8060737 300.07197931 416.80190894 296.24112535 416.79451311 C292.10058999 416.78976862 287.96010055 416.80230259 283.81958008 416.81253052 C275.71687186 416.82969892 267.61424125 416.83056258 259.51151957 416.82531761 C252.92337073 416.82127096 246.33524477 416.82272535 239.74709702 416.82806587 C238.33889214 416.82918851 238.33889214 416.82918851 236.90223869 416.83033382 C234.9948628 416.83186535 233.08748691 416.83340369 231.18011104 416.83494879 C213.30573852 416.84866679 195.43140981 416.8432411 177.55703829 416.83176357 C161.21835837 416.82183233 144.8797917 416.83477123 128.54112925 416.85869776 C111.74875866 416.88310271 94.9564408 416.89269318 78.16405284 416.88604504 C68.74273883 416.88255587 59.3215119 416.8847649 49.90021133 416.90229607 C41.87997215 416.9170355 33.85988137 416.91763077 25.83964504 416.90022516 C21.75100798 416.89172703 17.66263584 416.88953634 13.57401276 416.90487671 C9.82465406 416.91876954 6.0757861 416.9139024 2.32645546 416.89463747 C0.34153044 416.88912852 -1.64341985 416.90311057 -3.62829673 416.91799158 C-18.25971546 416.79853449 -29.11528862 411.96933777 -39.7795105 402.07518005 C-50.16218311 391.104809 -52.48566928 379.0064526 -52.41719055 364.35816956 C-52.42136997 362.95565487 -52.4268508 361.55314357 -52.43351036 360.15063846 C-52.44790415 356.31979603 -52.44373938 352.48916986 -52.43634355 348.6583159 C-52.43159907 344.51778054 -52.44413303 340.3772911 -52.45436096 336.23677063 C-52.47152937 328.13406241 -52.47239303 320.0314318 -52.46714806 311.92871012 C-52.46310141 305.34056128 -52.46455579 298.75243532 -52.46989632 292.16428757 C-52.47064474 291.22548432 -52.47139316 290.28668107 -52.47216426 289.31942924 C-52.47369579 287.41205335 -52.47523414 285.50467747 -52.47677923 283.59730159 C-52.49049723 265.72292907 -52.48507154 247.84860036 -52.47359402 229.97422884 C-52.46366278 213.63554892 -52.47660167 197.29698226 -52.50052821 180.9583198 C-52.52493315 164.16594921 -52.53452362 147.37363135 -52.52787548 130.5812434 C-52.52438631 121.15992938 -52.52659534 111.73870246 -52.54412651 102.31740189 C-52.55886594 94.2971627 -52.55946121 86.27707193 -52.5420556 78.25683559 C-52.53355747 74.16819853 -52.53136678 70.07982639 -52.54670715 65.99120331 C-52.56059998 62.24184461 -52.55573285 58.49297665 -52.53646792 54.74364601 C-52.53095896 52.75872099 -52.54494102 50.7737707 -52.55982202 48.78889382 C-52.44036493 34.15747509 -47.61116821 23.30190193 -37.7170105 12.63768005 C-26.74663944 2.25500745 -14.64828304 -0.06847873 0 0 Z M-15.9670105 38.13768005 C-20.66593071 45.54203917 -20.31668784 52.77904141 -20.29020691 61.31733704 C-20.29403246 62.62370467 -20.297858 63.93007231 -20.30179948 65.27602684 C-20.31206938 68.89136985 -20.30990024 72.50661358 -20.30561888 76.12196469 C-20.30314982 80.02526493 -20.31216806 83.92854138 -20.31965637 87.83183289 C-20.33240045 95.47472181 -20.33419742 103.1175756 -20.33185611 110.76047336 C-20.33007244 116.97352496 -20.33182363 123.18656591 -20.33608055 129.39961624 C-20.33667574 130.2841849 -20.33727093 131.16875356 -20.33788415 132.08012734 C-20.33909592 133.87718502 -20.34031005 135.6742427 -20.34152653 137.47130038 C-20.35240097 154.32119393 -20.35024004 171.17106746 -20.34414168 188.02096213 C-20.33897276 203.43066133 -20.35022749 218.84029732 -20.3692399 234.24998401 C-20.38861893 250.07833876 -20.39687418 265.9066636 -20.39311665 281.73503029 C-20.39120469 290.61916505 -20.39369171 299.50324599 -20.40783119 308.38737106 C-20.41974679 315.95064036 -20.42114789 323.51382273 -20.40904102 331.07709323 C-20.40315356 334.93442092 -20.40204918 338.79158962 -20.41404343 342.64890671 C-20.42690569 346.83408231 -20.41643466 351.01887976 -20.4037323 355.20405579 C-20.41110658 356.41816883 -20.41848087 357.63228187 -20.42607862 358.88318622 C-20.38184126 365.80918767 -20.31045926 373.31882196 -15.75460511 378.96874988 C-0.21531326 393.25797858 51.53988795 384.38768005 53.9704895 384.38768005 C53.9704895 268.22768005 53.9704895 152.06768005 53.9704895 32.38768005 C24.47766337 27.99475246 24.47766337 27.99475246 -15.9670105 38.13768005 Z M86.9704895 32.38768005 C86.9704895 148.54768005 86.9704895 264.70768005 86.9704895 384.38768005 C143.369552 384.48049255 143.369552 384.48049255 200.9079895 384.57518005 C212.78146362 384.60249207 224.65493774 384.62980408 236.88821411 384.65794373 C247.52860129 384.66797683 247.52860129 384.66797683 258.16899109 384.67401123 C262.90947173 384.67680693 267.64985166 384.68805244 272.39030457 384.70440674 C278.43906122 384.72499789 284.48767159 384.7311509 290.53646004 384.72689688 C292.7550959 384.72778631 294.97373692 384.73372695 297.19234264 384.74532545 C300.19323691 384.76028349 303.19356555 384.75663705 306.19447327 384.7484436 C307.0590342 384.7571816 307.92359514 384.76591959 308.8143549 384.77492237 C314.94209451 384.73006384 321.61372592 384.07193995 326.5648703 380.1127221 C332.9680672 373.08059522 332.25877888 364.35487549 332.23118591 355.45802307 C332.23501146 354.15165543 332.23883701 352.8452878 332.24277848 351.49933326 C332.25304839 347.88399025 332.25087924 344.26874653 332.24659789 340.65339541 C332.24412883 336.75009517 332.25314707 332.84681872 332.26063538 328.94352722 C332.27337945 321.3006383 332.27517643 313.65778451 332.27283511 306.01488675 C332.27105145 299.80183515 332.27280263 293.5887942 332.27705956 287.37574387 C332.27795234 286.04889087 332.27795234 286.04889087 332.27886316 284.69523277 C332.28007492 282.89817509 332.28128906 281.10111741 332.28250553 279.30405973 C332.29337998 262.45416618 332.29121905 245.60429265 332.28512069 228.75439797 C332.27995176 213.34469877 332.2912065 197.93506279 332.31021891 182.5253761 C332.32959794 166.69702135 332.33785318 150.8686965 332.33409566 135.04032981 C332.33218369 126.15619506 332.33467072 117.27211411 332.3488102 108.38798904 C332.36072579 100.82471975 332.36212689 93.26153738 332.35002003 85.69826688 C332.34413256 81.84093919 332.34302819 77.98377049 332.35502243 74.1264534 C332.36788469 69.9412778 332.35741367 65.75648034 332.3447113 61.57130432 C332.35208559 60.35719128 332.35945987 59.14307823 332.36705762 57.89217389 C332.32282027 50.96617243 332.25143826 43.45653815 327.69558412 37.80661023 C321.62164679 32.22129267 314.20006969 32.09520078 306.4349823 32.14717102 C305.49612686 32.14545898 304.55727142 32.14374695 303.58996582 32.14198303 C300.44467497 32.13868147 297.29959867 32.14970538 294.15432739 32.16062927 C291.86065649 32.16124211 289.56698521 32.16097466 287.27331448 32.15989876 C281.13475063 32.15944751 274.99626486 32.1710336 268.85771942 32.18511963 C263.09611263 32.19651514 257.33452476 32.19704618 251.57290649 32.19847107 C234.72625717 32.20896292 217.87962235 32.23688525 201.0329895 32.26268005 C163.3923645 32.30393005 125.7517395 32.34518005 86.9704895 32.38768005 Z " fill="#000000" transform="translate(100.02951049804688,47.61231994628906)"/>
</svg>
