<?xml version="1.0" encoding="UTF-8"?>
<svg version="1.1" xmlns="http://www.w3.org/2000/svg" width="512" height="512">
<path d="M0 0 C1.00880722 0.00555908 1.00880722 0.00555908 2.03799438 0.01123047 C35.5590667 0.27282355 64.09111716 13.90656709 87.71484375 37.33984375 C111.11507509 61.34724248 122.91807377 94.5030827 123.0625 127.75 C122.62559461 161.04219069 110.66618934 191.45092665 88.75 216.4375 C89.57628906 216.67855469 90.40257812 216.91960937 91.25390625 217.16796875 C95.33797669 218.65101109 98.92588911 220.5969493 102.6875 222.75 C103.36490234 223.12833984 104.04230469 223.50667969 104.74023438 223.89648438 C108.17481881 225.84263912 111.41388778 227.88020744 114.58203125 230.23828125 C117.48480531 232.72832615 117.48480531 232.72832615 120.5 232.3125 C121.61375 231.879375 121.61375 231.879375 122.75 231.4375 C128.01120498 229.68376501 132.95313651 229.84413836 138.00390625 232.28515625 C145.30152258 237.10125652 150.39445965 246.08399032 154.75 253.4375 C154.75 254.0975 154.75 254.7575 154.75 255.4375 C155.74 255.4375 156.73 255.4375 157.75 255.4375 C157.853125 254.261875 157.95625 253.08625 158.0625 251.875 C160.72762009 228.51818368 160.72762009 228.51818368 168.75 222 C176.81687505 217.96863444 187.75593336 220.6576833 196.2109375 222.265625 C197.24513824 222.45590271 198.27933899 222.64618042 199.34487915 222.84222412 C201.50876544 223.24371859 203.6716409 223.6506974 205.83349609 224.06298828 C209.13456021 224.6893139 212.43976146 225.28890567 215.74609375 225.88671875 C217.85967471 226.28225601 219.9729674 226.6793374 222.0859375 227.078125 C223.55793106 227.34245331 223.55793106 227.34245331 225.05966187 227.61212158 C233.01314382 229.16418581 237.99159563 231.56424925 242.75 238.4375 C246.10612595 248.50587786 242.62239624 260.3064989 240.75 270.4375 C245.40413972 268.8831763 248.91907229 266.32763722 252.8125 263.4375 C259.57398291 258.45010481 264.05755017 255.35992357 272.75 256.4375 C278.30213872 257.80209695 281.24450554 260.76781203 284.49609375 265.359375 C285.19275146 266.34204346 285.88940918 267.32471191 286.60717773 268.3371582 C290.04577441 273.31229085 293.41489997 278.33000982 296.75 283.375 C297.41 284.36951172 298.07 285.36402344 298.75 286.38867188 C300.0759727 288.38669519 301.40021206 290.38586997 302.72265625 292.38623047 C304.13831837 294.51688379 305.56123213 296.6407053 306.99609375 298.75830078 C307.71925781 299.82935059 308.44242187 300.90040039 309.1875 302.00390625 C309.84621094 302.97400635 310.50492187 303.94410645 311.18359375 304.94360352 C313.92026738 309.30069845 314.3556802 313.40221837 313.75 318.4375 C310.94892141 328.85590023 300.07410832 334.36360518 291.68359375 339.9921875 C289.63143 341.30075641 289.63143 341.30075641 288.75 343.4375 C290.05710937 343.60185547 290.05710937 343.60185547 291.390625 343.76953125 C314.80873766 346.88687742 314.80873766 346.88687742 320.75 353.4375 C325.35144932 359.57276576 324.33665549 367.65618134 323.44549561 374.91925049 C322.60958199 380.70366678 321.59872626 386.45534071 320.55175781 392.20483398 C319.998541 395.25805227 319.47093824 398.31497196 318.9453125 401.37304688 C318.59527445 403.33881373 318.24376307 405.30431893 317.890625 407.26953125 C317.65910736 408.62290337 317.65910736 408.62290337 317.4229126 410.00361633 C315.79745627 418.73130515 313.20870796 425.30963828 305.75 430.4375 C296.20256633 433.81079027 283.33399198 429.54518288 273.75 427.4375 C276.97500243 433.24100088 280.55667755 438.7065264 284.30273438 444.18359375 C287.99781284 449.64588366 289.54617558 453.81854782 288.75 460.4375 C285.6572236 471.94084821 272.51410571 478.08053272 263.27734375 484.34375 C259.95395249 486.60243755 256.66087207 488.900281 253.37890625 491.21875 C252.02321533 492.17563721 252.02321533 492.17563721 250.64013672 493.15185547 C248.86249181 494.40857174 247.08671827 495.66794002 245.31298828 496.93017578 C244.50200684 497.5023584 243.69102539 498.07454102 242.85546875 498.6640625 C242.13512451 499.17533691 241.41478027 499.68661133 240.67260742 500.21337891 C237.69157624 502.11139673 235.02745465 502.6334794 231.5625 502.75 C230.84707031 502.78738281 230.13164062 502.82476562 229.39453125 502.86328125 C222.85914342 501.81105485 218.86405205 499.04496186 214.9765625 493.70703125 C213.75791414 491.90011527 212.55765909 490.08067382 211.375 488.25 C210.16234938 486.42085509 208.94637326 484.59390905 207.7265625 482.76953125 C206.93886475 481.55873901 206.93886475 481.55873901 206.13525391 480.32348633 C204.87821957 478.31155521 204.87821957 478.31155521 202.75 477.4375 C202.71261719 477.98535156 202.67523438 478.53320312 202.63671875 479.09765625 C200.71144787 502.31415799 200.71144787 502.31415799 193.75 509.4375 C188.25689461 513.69465668 181.37347572 513.01935981 174.75 512.4375 C167.81122081 511.50570178 160.94122583 510.15915242 154.07324219 508.81201172 C150.86458646 508.18546658 147.65167277 507.58580028 144.4375 506.98828125 C142.37729711 506.59274183 140.31738955 506.19566033 138.2578125 505.796875 C137.30665558 505.62065613 136.35549866 505.44443726 135.3755188 505.26287842 C128.41895373 503.8701151 122.99029261 502.13733981 118.3125 496.5 C113.39717435 486.47866797 117.65543339 472.84799478 119.75 462.4375 C115.09586028 463.9918237 111.58092771 466.54736278 107.6875 469.4375 C100.47780612 474.75550391 95.98830762 477.35986669 86.75 476.4375 C82.61734772 475.03395772 81.14077091 474.03309301 78.73484135 470.3660984 C77.0690282 468.34497208 76.15150402 467.54078744 73.59243 466.88246226 C70.81432253 466.67447273 68.09074595 466.65921983 65.30503845 466.70492554 C63.71027824 466.69534378 63.71027824 466.69534378 62.08330065 466.68556845 C58.51451538 466.67132101 54.94734596 466.69985257 51.37866211 466.72802734 C48.82286788 466.72640602 46.26707413 466.72209366 43.71128845 466.71528625 C38.20489839 466.7062578 32.69900324 466.71529233 27.19267082 466.74018478 C19.22718996 466.77581283 11.26203978 466.77457349 3.29650218 466.76358695 C-9.63286673 466.74638315 -22.56210115 466.75297692 -35.49145508 466.77734375 C-36.26513817 466.77879539 -37.03882126 466.78024702 -37.83594929 466.78174265 C-40.97097748 466.78765619 -44.10600559 466.79360926 -47.24103359 466.79961874 C-55.87365646 466.8159249 -64.50628307 466.82748655 -73.13891602 466.83691406 C-73.91195964 466.83776502 -74.68500326 466.83861598 -75.48147244 466.83949272 C-88.36380447 466.85310201 -101.24609681 466.85084443 -114.12842935 466.83886492 C-122.07570299 466.83237762 -130.02269009 466.84127459 -137.96991622 466.86994947 C-144.05487289 466.89104684 -150.13966325 466.89242785 -156.22466087 466.88657188 C-158.72407431 466.88763662 -161.22349551 466.89563176 -163.72286224 466.9109478 C-167.12620091 466.9309249 -170.5286614 466.9265834 -173.93202209 466.91610718 C-175.42689898 466.93388688 -175.42689898 466.93388688 -176.95197541 466.95202577 C-183.56904666 466.89572539 -183.56904666 466.89572539 -186.86354828 464.67879772 C-188.38334772 462.22193393 -188.75040178 460.96260585 -188.75120544 458.09812927 C-188.76103958 457.23660248 -188.77087372 456.37507568 -188.78100586 455.48744202 C-188.76650391 454.08104713 -188.76650391 454.08104713 -188.75170898 452.64624023 C-188.75711197 451.65205078 -188.76251495 450.65786133 -188.76808167 449.63354492 C-188.78061256 446.33742706 -188.76403062 443.04217638 -188.74609375 439.74609375 C-188.74624882 437.44320124 -188.74773911 435.14030846 -188.75050354 432.8374176 C-188.75189011 427.99769623 -188.73930045 423.1582702 -188.71655273 418.31860352 C-188.68840627 412.16613018 -188.69083675 406.01415648 -188.70364285 399.86164761 C-188.71066517 395.09556452 -188.70273282 390.32959307 -188.69038582 385.56352425 C-188.68591764 383.29891453 -188.68549322 381.0342926 -188.68945122 378.76968193 C-188.70555279 361.4236567 -187.57205344 344.65353351 -182.5625 327.9375 C-182.30831299 327.07350586 -182.05412598 326.20951172 -181.79223633 325.31933594 C-175.42001783 304.39267286 -165.57619434 284.76919256 -152.25 267.4375 C-151.56679687 266.53 -150.88359375 265.6225 -150.1796875 264.6875 C-133.4726161 243.3431046 -112.46431154 227.3825968 -88.25 215.4375 C-88.77207031 214.92445313 -89.29414062 214.41140625 -89.83203125 213.8828125 C-112.29205873 190.51809039 -122.69149542 157.44474556 -122.55273438 125.50195312 C-121.73033217 89.77314616 -107.62801686 57.06030171 -81.96435547 32.12231445 C-59.69743205 11.25496258 -30.44566705 -0.24557599 0 0 Z M-79.0625 54.6875 C-99.79390447 79.564433 -106.61400824 111.23571707 -104.04785156 142.93457031 C-100.67568076 171.17172882 -84.63741046 198.29217332 -62.44775391 215.86474609 C-40.46033347 232.23387438 -14.31709001 239.79801215 13 236.75 C40.30066959 232.71473283 65.44371282 218.02561846 82.3515625 196.17578125 C100.85651359 170.32608154 108.52905556 140.50629062 104.05859375 108.84765625 C100.68388326 88.94566144 92.11869604 69.61760333 78.75 54.4375 C77.73679687 53.20966797 77.73679687 53.20966797 76.703125 51.95703125 C60.05092489 32.35727017 35.25480801 19.90841835 9.75 17.4375 C-24.51107509 14.72687892 -56.63344312 28.90774876 -79.0625 54.6875 Z M-82.8125 233.0625 C-83.5334082 233.42931885 -84.25431641 233.7961377 -84.99707031 234.17407227 C-123.4396842 253.91662039 -151.06399169 287.45966745 -164.25 328.4375 C-169.69251045 347.08049989 -171.55960661 365.16593037 -171.4453125 384.49609375 C-171.44157224 386.38037464 -171.43873007 388.2646575 -171.43673706 390.14894104 C-171.42918024 395.05609718 -171.40960222 399.9631308 -171.3873291 404.87023926 C-171.36305579 410.78595702 -171.35405175 416.70171625 -171.34242249 422.61746979 C-171.32317149 431.5575645 -171.28479394 440.49739155 -171.25 449.4375 C-148.48 449.4375 -125.71 449.4375 -102.25 449.4375 C-102.07956995 434.1500882 -102.07956995 434.1500882 -101.95214844 418.86230469 C-101.92278188 416.94463697 -101.89195667 415.02699079 -101.859375 413.109375 C-101.85824707 412.11502441 -101.85711914 411.12067383 -101.85595703 410.09619141 C-101.71069536 403.10591629 -101.71069536 403.10591629 -99.43066406 399.79785156 C-96.22729874 397.79951395 -93.94565075 397.97554366 -90.25 398.4375 C-87.875 399.625 -87.875 399.625 -86.25 401.4375 C-83.11146095 417.13019524 -85.25 433.43402815 -85.25 449.4375 C-36.08 449.4375 13.09 449.4375 63.75 449.4375 C59.05347002 441.99263772 59.05347002 441.99263772 54.09765625 434.72265625 C49.5326978 428.28489433 46.45971897 423.17231824 47.20703125 414.984375 C49.08491922 406.17586451 57.61493297 401.54945767 64.40234375 396.44140625 C65.21832031 395.82136719 66.03429687 395.20132813 66.875 394.5625 C67.62007812 394.00820313 68.36515625 393.45390625 69.1328125 392.8828125 C69.66648437 392.40585937 70.20015625 391.92890625 70.75 391.4375 C70.75 390.7775 70.75 390.1175 70.75 389.4375 C69.98856689 389.27668945 69.22713379 389.11587891 68.44262695 388.95019531 C64.97934036 388.21030536 61.52106267 387.44915276 58.0625 386.6875 C56.26522461 386.30851562 56.26522461 386.30851562 54.43164062 385.921875 C53.27470703 385.6640625 52.11777344 385.40625 50.92578125 385.140625 C49.86270752 384.91020508 48.79963379 384.67978516 47.7043457 384.44238281 C43.80576795 383.11633157 40.88600856 381.12646636 38.5703125 377.68359375 C35.14715724 368.77954384 37.8670614 358.92375185 39.45703125 349.80078125 C39.62369797 348.83649704 39.79036469 347.87221283 39.96208191 346.87870789 C40.31343687 344.85904835 40.66733041 342.8398289 41.02368164 340.82104492 C41.56263548 337.74922781 42.08321003 334.67463261 42.60351562 331.59960938 C42.94939437 329.62480237 43.2963624 327.65018578 43.64453125 325.67578125 C43.87134331 324.31299797 43.87134331 324.31299797 44.10273743 322.92268372 C45.35632476 316.00133575 47.11254638 309.8296091 52.4375 305 C60.19809495 301.33934201 66.90242557 302.57048772 74.98974609 304.31860352 C78.98867146 305.17733767 82.66090669 305.59648497 86.75 305.4375 C85.06509626 300.37269955 82.12266406 296.21712519 79.1875 291.8125 C78.18314644 290.30150303 77.18171359 288.7885595 76.18359375 287.2734375 C75.74072021 286.60876465 75.29784668 285.9440918 74.84155273 285.25927734 C72.40830534 281.19824132 72.1677824 277.03986543 72.75 272.4375 C74.85812599 266.11468304 78.3237773 262.58002343 83.75 258.9375 C84.40556885 258.47754639 85.0611377 258.01759277 85.73657227 257.54370117 C87.72804526 256.15475541 89.73557728 254.79289241 91.75 253.4375 C92.67594971 252.80835693 92.67594971 252.80835693 93.62060547 252.16650391 C96.97515338 249.88938273 100.35048568 247.64686778 103.75 245.4375 C97.17613037 240.03463713 89.93985647 235.98216212 82.4375 232 C80.98923828 231.22849609 80.98923828 231.22849609 79.51171875 230.44140625 C76.24506399 229.25395183 75.00104088 229.26392918 71.75 230.4375 C69.55519743 231.7589186 67.47552964 233.10753095 65.375 234.5625 C39.28372519 251.8714966 6.84488722 257.9805235 -23.9375 251.8125 C-40.46130263 248.15967821 -57.70284886 241.50445682 -70.734375 230.46875 C-74.78029508 227.71585592 -79.04501614 231.1305572 -82.8125 233.0625 Z M178.75 237.4375 C176.8989246 246.79900285 176.8989246 246.79900285 175.07104492 256.16503906 C174.83490479 257.33260742 174.59876465 258.50017578 174.35546875 259.703125 C174.11981201 260.89711914 173.88415527 262.09111328 173.64135742 263.32128906 C172.76033554 266.40136665 171.95123338 268.14044221 169.75 270.4375 C163.31968305 272.82437665 154.58487578 275.12118573 147.75 273.4375 C142.61459453 269.07877923 139.02152379 262.58683459 135.375 257 C134.82972656 256.17306641 134.28445313 255.34613281 133.72265625 254.49414062 C132.39412585 252.47803747 131.07002924 250.45917506 129.75 248.4375 C116.26534564 256.70886466 103.49364307 266.07931719 90.75 275.4375 C91.38258609 278.85026315 92.69352868 281.11292465 94.65625 283.95703125 C95.23503906 284.81490234 95.81382812 285.67277344 96.41015625 286.55664062 C97.63126627 288.34423162 98.8577915 290.12813613 100.08984375 291.90820312 C103.3069268 296.69800272 105.82425049 300.46033564 105.75 306.4375 C104.9296875 308.84375 104.9296875 308.84375 103.625 310.9375 C103.16222656 311.6903125 102.69945312 312.443125 102.22265625 313.21875 C101.73667969 313.9509375 101.25070312 314.683125 100.75 315.4375 C100.29496094 316.1284375 99.83992188 316.819375 99.37109375 317.53125 C96.13533541 322.24483229 96.13533541 322.24483229 93.75 323.4375 C87.62769827 323.82621757 81.98113991 322.66525133 76 321.4375 C74.13069749 321.06006921 72.2609236 320.68496345 70.390625 320.3125 C69.57110352 320.14492188 68.75158203 319.97734375 67.90722656 319.8046875 C65.62179832 319.35360033 65.62179832 319.35360033 62.75 319.4375 C60.17341286 331.51564982 57.65691276 343.60045225 55.4375 355.75 C55.26637695 356.6795752 55.09525391 357.60915039 54.91894531 358.56689453 C54.76393555 359.42782715 54.60892578 360.28875977 54.44921875 361.17578125 C54.31346436 361.92899658 54.17770996 362.68221191 54.0378418 363.45825195 C53.67804203 365.59895014 53.67804203 365.59895014 53.75 368.4375 C54.57725586 368.59831055 55.40451172 368.75912109 56.25683594 368.92480469 C59.33820817 369.53138765 62.41641424 370.15167404 65.49316406 370.78125 C66.82279382 371.05041106 68.15353235 371.31415605 69.48535156 371.57226562 C71.40455327 371.94520467 73.31955261 372.33956626 75.234375 372.734375 C76.38647461 372.96479492 77.53857422 373.19521484 78.72558594 373.43261719 C82.09577351 374.55238568 83.56258867 375.67231836 85.75 378.4375 C86.796875 381.6796875 86.796875 381.6796875 87.5 385.3125 C87.74234375 386.50617188 87.9846875 387.69984375 88.234375 388.9296875 C89.17423723 395.32359873 89.17423723 395.32359873 88.75 398.4375 C85.14129415 402.94484437 80.25271644 406.2153255 75.625 409.625 C74.90957031 410.15802734 74.19414062 410.69105469 73.45703125 411.24023438 C70.58877625 413.37132103 67.72411745 415.45475503 64.75 417.4375 C66.41500952 422.42821507 69.27508426 426.47901146 72.1953125 430.80078125 C72.72518768 431.59276413 73.25506287 432.38474701 73.80099487 433.20072937 C75.48800516 435.72008408 77.18139681 438.23507378 78.875 440.75 C80.02255953 442.46130422 81.16969978 444.17288967 82.31640625 445.88476562 C85.12275629 450.07228476 87.93483582 454.25590184 90.75 458.4375 C93.95060089 457.25032433 96.6214997 455.99962742 99.34375 453.94140625 C99.98183594 453.46509766 100.61992187 452.98878906 101.27734375 452.49804688 C101.92832031 452.00369141 102.57929688 451.50933594 103.25 451 C114.30833117 442.66793067 114.30833117 442.66793067 118.609375 441.98046875 C122.82497535 442.59393298 125.52692312 444.37697607 129 446.75 C129.93585938 447.35618164 129.93585938 447.35618164 130.890625 447.97460938 C133.8538398 449.93837781 135.75679022 451.44768533 137.75 454.4375 C138.26240232 461.41898161 136.96443679 468.07757327 135.75 474.9375 C135.55921875 476.04609375 135.3684375 477.1546875 135.171875 478.296875 C134.70383499 481.01150708 134.22859049 483.72471466 133.75 486.4375 C140.26396947 487.72187036 146.77850835 489.00332088 153.29345703 490.28271484 C155.51103823 490.71856072 157.72848676 491.15508208 159.94580078 491.59228516 C163.12758547 492.21953909 166.30983478 492.84438526 169.4921875 493.46875 C170.48805878 493.66561401 171.48393005 493.86247803 172.50997925 494.06530762 C173.43078278 494.24549438 174.3515863 494.42568115 175.30029297 494.61132812 C176.51940872 494.85115417 176.51940872 494.85115417 177.76315308 495.0958252 C179.74250926 495.49399353 179.74250926 495.49399353 181.75 495.4375 C181.91604736 494.57995117 182.08209473 493.72240234 182.25317383 492.83886719 C182.87654773 489.64653548 183.50940689 486.45627222 184.14868164 483.26708984 C184.42298623 481.88860816 184.69353993 480.50937441 184.96020508 479.12939453 C185.34504026 477.14143777 185.74345815 475.15661118 186.14453125 473.171875 C186.38018799 471.97788086 186.61584473 470.78388672 186.85864258 469.55371094 C187.7410224 466.46888593 188.53122354 464.72662211 190.75 462.4375 C193.859375 461.390625 193.859375 461.390625 197.5 460.6875 C198.69109375 460.44515625 199.8821875 460.2028125 201.109375 459.953125 C204.83391843 459.42561456 208.00513542 459.00205063 211.75 459.4375 C215.90738718 462.71508244 218.80576281 467.05775294 221.8125 471.375 C222.23337891 471.96990234 222.65425781 472.56480469 223.08789062 473.17773438 C225.7048917 476.89022427 228.24522756 480.64852553 230.75 484.4375 C235.98719002 481.55670497 240.83727371 478.36221684 245.6875 474.875 C247.17386795 473.81554821 248.66086413 472.75697734 250.1484375 471.69921875 C250.90350586 471.16216309 251.65857422 470.62510742 252.43652344 470.07177734 C256.20509447 467.40959768 260.00692012 464.79638911 263.8125 462.1875 C264.50915771 461.70982178 265.20581543 461.23214355 265.92358398 460.73999023 C267.53178032 459.63827066 269.14079095 458.53773984 270.75 457.4375 C268.45179309 453.05354206 266.04900213 448.81704049 263.2265625 444.74609375 C262.77909668 444.09777588 262.33163086 443.44945801 261.87060547 442.78149414 C260.97184733 441.49034978 260.06232027 440.20662103 259.14111328 438.93139648 C256.2783308 434.80953501 254.91741608 431.59639546 254.75 426.4375 C255.96723346 423.80827573 257.14835055 421.7988442 258.75 419.4375 C259.18699219 418.6434375 259.62398437 417.849375 260.07421875 417.03125 C260.54472656 416.2165625 261.01523437 415.401875 261.5 414.5625 C261.92796875 413.80195313 262.3559375 413.04140625 262.796875 412.2578125 C265.76982503 409.48702307 268.85346911 409.36597419 272.75 409.4375 C276.38242959 409.87678349 279.92618921 410.59841242 283.5 411.375 C285.3482941 411.76229814 287.19723295 412.14653509 289.046875 412.52734375 C289.85479492 412.70128662 290.66271484 412.87522949 291.49511719 413.05444336 C294.0260524 413.54915287 294.0260524 413.54915287 297.75 413.4375 C300.32658714 401.35935018 302.84308724 389.27454775 305.0625 377.125 C305.23362305 376.1954248 305.40474609 375.26584961 305.58105469 374.30810547 C305.73606445 373.44717285 305.89107422 372.58624023 306.05078125 371.69921875 C306.18653564 370.94600342 306.32229004 370.19278809 306.4621582 369.41674805 C306.82195797 367.27604986 306.82195797 367.27604986 306.75 364.4375 C305.89245117 364.27668945 305.03490234 364.11587891 304.15136719 363.95019531 C300.95823967 363.34375197 297.76820567 362.72345054 294.57958984 362.09375 C293.20143122 361.8245253 291.82218955 361.56078241 290.44189453 361.30273438 C288.45292052 360.92989137 286.46873166 360.5372207 284.484375 360.140625 C283.29038086 359.91020508 282.09638672 359.67978516 280.86621094 359.44238281 C277.42635093 358.33313306 275.96333601 357.25871482 273.75 354.4375 C272.703125 351.1953125 272.703125 351.1953125 272 347.5625 C271.63648438 345.77199219 271.63648438 345.77199219 271.265625 343.9453125 C270.32576277 337.55140127 270.32576277 337.55140127 270.75 334.4375 C274.54292007 329.59825715 279.94455977 326.26856841 284.9375 322.75 C286.55712622 321.60186214 288.17566817 320.45219277 289.79296875 319.30078125 C290.50477295 318.79844971 291.21657715 318.29611816 291.94995117 317.77856445 C293.86348696 316.4204038 293.86348696 316.4204038 295.75 314.4375 C292.11665007 308.87368384 288.46727994 303.32064019 284.80639648 297.77490234 C283.56208819 295.88576439 282.32151362 293.99416179 281.0847168 292.10009766 C279.30965767 289.3831269 277.52150265 286.67520822 275.73046875 283.96875 C274.90061714 282.68913391 274.90061714 282.68913391 274.05400085 281.38366699 C273.5336879 280.60285767 273.01337494 279.82204834 272.47729492 279.01757812 C272.02206955 278.32474731 271.56684418 277.6319165 271.0978241 276.91809082 C270.65304214 276.42949585 270.20826019 275.94090088 269.75 275.4375 C266.42505989 275.4375 265.78639483 275.85369688 263.16796875 277.703125 C262.48283203 278.18136719 261.79769531 278.65960938 261.09179688 279.15234375 C260.38087891 279.65894531 259.66996094 280.16554688 258.9375 280.6875 C256.85252771 282.15178469 254.76689378 283.6151084 252.68017578 285.0769043 C251.46275649 285.93507249 250.25178775 286.80253601 249.05029297 287.68286133 C245.07828788 290.51418481 242.89910063 291.01129586 238.1953125 290.25390625 C232.52379745 288.36038126 226.52156523 284.11615054 222.75 279.4375 C221.32143192 272.68681553 223.36490829 265.16096354 224.68212891 258.50341797 C224.88588135 257.45758545 224.88588135 257.45758545 225.09375 256.390625 C225.21943359 255.77348633 225.34511719 255.15634766 225.47460938 254.52050781 C225.82795457 251.84786493 225.75 249.13339926 225.75 246.4375 C210.24 243.4675 194.73 240.4975 178.75 237.4375 Z " fill="#000000" transform="translate(188.25,-0.4375)"/>
<path d="M0 0 C12.0045444 10.43638319 20.93516279 24.671208 22.265625 40.81494141 C23.19815491 57.70538947 19.39701049 73.55813107 8.23999023 86.72070312 C-2.6618039 98.82060195 -16.972948 105.95745063 -33.21875 107.046875 C-48.8217436 107.44123638 -63.31786645 102.80613385 -75.2734375 92.57421875 C-83.55464571 84.53777531 -89.16249058 75.72955369 -92.8984375 64.82421875 C-93.14464844 64.11136719 -93.39085937 63.39851563 -93.64453125 62.6640625 C-98.0230212 46.99208813 -94.50057592 30.12224915 -86.90625 16.15234375 C-78.29258356 1.87443751 -64.50239874 -7.15828711 -48.5859375 -11.48828125 C-31.28360085 -14.74814178 -14.04354811 -10.54212439 0 0 Z M-66.859375 18.359375 C-74.34069845 27.40289051 -78.26421145 38.47661507 -77.8359375 50.13671875 C-76.53495229 62.95217077 -70.41935962 73.40122725 -60.6484375 81.63671875 C-50.71517205 88.80333644 -39.86827595 90.42714128 -27.8984375 88.82421875 C-17.51943565 86.16172792 -8.36401092 79.94080519 -2.24609375 71.11328125 C4.8153523 59.11905695 6.38220417 48.59147621 3.10546875 35.1171875 C-0.37820263 23.69020316 -8.10887087 14.71971894 -18.5234375 8.97265625 C-35.19183874 0.91260696 -53.74236286 5.93398713 -66.859375 18.359375 Z " fill="#000000" transform="translate(404.8984375,318.17578125)"/>
</svg>
