<?xml version="1.0" encoding="UTF-8"?>
<!DOCTYPE svg PUBLIC "-//W3C//DTD SVG 1.1//EN" "http://www.w3.org/Graphics/SVG/1.1/DTD/svg11.dtd">
<svg xmlns="http://www.w3.org/2000/svg" version="1.1" width="512px" height="512px" style="shape-rendering:geometricPrecision; text-rendering:geometricPrecision; image-rendering:optimizeQuality; fill-rule:evenodd; clip-rule:evenodd" xmlns:xlink="http://www.w3.org/1999/xlink">
<g><path fill="#23a566" stroke="#23a566" stroke-width="0.5" d="M 100,0.97 c 66.93,0.05 133.85,0.05 200.78,0.01 c 0.26,31.84 0.36,63.67 0.29,95.5 c -1.05,20.97 3.71,36.33 25.34,43.12 c 0.01,0.68 0.26,1.26 0.75,1.74 c 35.01,28.29 70,56.61 104.96,84.97 c 2.83,2.41 5.79,4.65 8.87,6.71 c 0.04,82.83 0.01,165.66 -0.1,248.48 c -2.59,17.12 -12.24,26.24 -28.8,29.93 c -5.86,-0.37 -11.73,-0.52 -17.6,-0.44 c -98.22,-0.1 -196.43,0 -294.64,0.3 c -16.12,-2.92 -26.58,-13.48 -28.75,-29.79 c -0.1,-148.66 -0.13,-297.33 -0.1,-446 c -1.23,-16.65 12.27,-33.48 29,-34.53 Z M 164.65,404 c -0.39,7.69 3.22,11.98 10.84,12.87 c 53.68,0.02 107.35,0.02 161.02,0.01 c 7.46,-0.75 11.13,-4.9 11.01,-12.43 c 0,-45.92 0,-91.83 0,-137.74 c -0.08,-7.32 -4.57,-12.08 -12.02,-11.79 c -53,0 -106,0 -159,0 c -7.23,-0.3 -12.04,4.29 -11.84,11.58 c 0,45.83 -0.01,91.67 -0.01,137.5 Z M 185.67,298 c 0.01,-6.86 0.01,-13.72 0.02,-20.57 c 0.02,-0.63 0.32,-1.08 0.89,-1.34 c 18.97,-0.07 37.95,-0.11 56.93,-0.11 c 1.05,-0.05 1.7,0.43 1.95,1.42 c 0.03,7.38 0.03,14.76 0.02,22.14 c -0.01,0.95 -0.44,1.61 -1.28,1.99 c -19.13,0.03 -38.26,0.02 -57.39,0 c -1.43,-0.34 -1.09,-2.45 -1.14,-3.53 Z M 266.51,298 c 0.02,-6.51 0.01,-13.02 -0.03,-19.54 c -0.13,-1.03 0.23,-1.83 1.07,-2.38 c 18.99,-0.07 37.98,-0.1 56.97,-0.09 c 0.6,-0.06 1.11,0.13 1.53,0.57 c 0.27,7.64 0.36,15.3 0.27,22.97 c 0.03,0.92 -0.34,1.58 -1.13,2 c -19.13,0.02 -38.26,0.03 -57.39,0 c -1.51,-0.31 -1.29,-2.38 -1.29,-3.53 Z M 185.67,326 c -0.04,-1.37 -0.25,-3.43 1.73,-3.43 c 19.07,-0.06 38.13,0.01 57.18,0.22 c 0.59,0.37 0.89,0.9 0.9,1.6 c -0.01,7.38 0,14.76 0.03,22.14 c 0.27,1.61 -0.39,2.48 -1.97,2.61 c -19.01,0.02 -38.01,-0.03 -57.01,-0.15 c -0.55,-0.3 -0.84,-0.77 -0.85,-1.41 c 0,-7.2 0,-14.39 -0.01,-21.58 Z M 266.51,326 c -0.09,-1.46 -0.15,-3.46 1.89,-3.43 c 19.06,-0.07 38.11,0.01 57.15,0.25 c 0.54,0.39 0.8,0.93 0.78,1.6 c 0.07,8.03 -0.01,16.05 -0.25,24.06 c -0.4,0.48 -0.91,0.7 -1.54,0.65 c -19.01,0.02 -38.02,-0.02 -57.03,-0.12 c -0.61,-0.27 -0.93,-0.74 -0.98,-1.41 c -0.01,-7.2 -0.02,-14.4 -0.02,-21.6 Z M 185.67,373 c -0.02,-1.3 0.09,-2.99 1.87,-2.76 c 18.92,0 37.84,0.03 56.76,0.06 c 0.82,0.47 1.22,1.19 1.18,2.17 c 0.03,7.37 0,14.73 -0.09,22.1 c -0.28,0.93 -0.92,1.37 -1.91,1.32 c -18.94,0 -37.89,-0.03 -56.83,-0.1 c -0.75,-0.55 -1.08,-1.3 -0.98,-2.26 c 0.01,-6.85 0.01,-13.69 0,-20.53 Z M 266.51,393 c 0.01,-6.85 0.01,-13.69 0.01,-20.53 c -0.04,-0.98 0.36,-1.7 1.18,-2.17 c 18.92,-0.03 37.84,-0.06 56.76,-0.06 c 0.92,-0.06 1.51,0.35 1.75,1.23 c 0.11,7.35 0.15,14.7 0.12,22.06 c 0.1,0.96 -0.23,1.71 -0.98,2.26 c -18.94,0.07 -37.89,0.1 -56.83,0.1 c -1.63,-0.23 -2.29,-1.19 -2.01,-2.89 Z"/></g>
<g><path fill="#8ed1b1" stroke="#8ed1b1" stroke-width="0.5" d="M 300.78,0.98 c 0.45,0.1 0.9,0.2 1.35,0.3 c 45.9,46.12 91.88,92.16 137.95,138.12 c 0.5,0.4 0.75,0.91 0.75,1.54 c -34.32,-0.85 -69.68,-0.09 -104.12,-0.43 c -3.45,-0.12 -6.89,-0.43 -10.3,-0.91 c -21.63,-6.79 -26.39,-22.15 -25.34,-43.12 c 0.07,-31.83 -0.03,-63.66 -0.29,-95.5 Z"/></g>
<g><path fill="#1c8653" stroke="#1c8653" stroke-width="0.5" d="M 326.41,139.6 c 3.41,0.48 6.85,0.79 10.3,0.91 c 34.44,0.34 69.8,-0.42 104.12,0.43 c 0.17,30.69 0.23,61.38 0.16,92.08 c -3.08,-2.06 -6.04,-4.3 -8.87,-6.71 c -34.96,-28.36 -69.95,-56.68 -104.96,-84.97 c -0.49,-0.48 -0.74,-1.06 -0.75,-1.74 Z"/></g>
<g><path fill="#23a567" fill-opacity="0.396" stroke="#23a567" stroke-width="0.5" stroke-opacity="0.396" d="M 100,0 c 67.33,0 134.67,0 202,0 c 0.04,0.43 0.09,0.85 0.13,1.28 c -0.45,-0.1 -0.9,-0.2 -1.35,-0.3 c -66.93,0.04 -133.85,0.04 -200.78,-0.01 c 0,-0.32 0,-0.65 0,-0.97 Z M 99.85,511.29 c 98.21,-0.3 196.42,-0.4 294.64,-0.3 c 5.87,-0.08 11.74,0.07 17.6,0.44 c -0.03,0.19 -0.06,0.38 -0.09,0.57 c -104,0 -208,0 -312,0 c -0.05,-0.24 -0.1,-0.47 -0.15,-0.71 Z"/></g>
<g><path fill="#feffff" stroke="#feffff" stroke-width="0.5" d="M 164.65,404 c 0,-45.83 0.01,-91.67 0.01,-137.5 c -0.2,-7.29 4.61,-11.88 11.84,-11.58 c 53,0 106,0 159,0 c 7.45,-0.29 11.94,4.47 12.02,11.79 c 0,45.91 0,91.82 0,137.74 c 0.12,7.53 -3.55,11.68 -11.01,12.43 c -53.67,0.01 -107.34,0.01 -161.02,-0.01 c -7.62,-0.89 -11.23,-5.18 -10.84,-12.87 Z M 185.67,298 c 0.05,1.08 -0.29,3.19 1.14,3.53 c 19.13,0.02 38.26,0.03 57.39,0 c 0.84,-0.38 1.27,-1.04 1.28,-1.99 c 0.01,-7.38 0.01,-14.76 -0.02,-22.14 c -0.25,-0.99 -0.9,-1.47 -1.95,-1.42 c -18.98,0 -37.96,0.04 -56.93,0.11 c -0.57,0.26 -0.87,0.71 -0.89,1.34 c -0.01,6.85 -0.01,13.71 -0.02,20.57 Z M 266.51,298 c 0,1.15 -0.22,3.22 1.29,3.53 c 19.13,0.03 38.26,0.02 57.39,0 c 0.79,-0.42 1.16,-1.08 1.13,-2 c 0.09,-7.67 0,-15.33 -0.27,-22.97 c -0.42,-0.44 -0.93,-0.63 -1.53,-0.57 c -18.99,-0.01 -37.98,0.02 -56.97,0.09 c -0.84,0.55 -1.2,1.35 -1.07,2.38 c 0.04,6.52 0.05,13.03 0.03,19.54 Z M 185.67,326 c 0.01,7.19 0.01,14.38 0.01,21.58 c 0.01,0.64 0.3,1.11 0.85,1.41 c 19,0.12 38,0.17 57.01,0.15 c 1.58,-0.13 2.24,-1 1.97,-2.61 c -0.03,-7.38 -0.04,-14.76 -0.03,-22.14 c -0.01,-0.7 -0.31,-1.23 -0.9,-1.6 c -19.05,-0.21 -38.11,-0.28 -57.18,-0.22 c -1.98,0 -1.77,2.06 -1.73,3.43 Z M 266.51,326 c 0,7.2 0.01,14.4 0.02,21.6 c 0.05,0.67 0.37,1.14 0.98,1.41 c 19.01,0.1 38.02,0.14 57.03,0.12 c 0.63,0.05 1.14,-0.17 1.54,-0.65 c 0.24,-8.01 0.32,-16.03 0.25,-24.06 c 0.02,-0.67 -0.24,-1.21 -0.78,-1.6 c -19.04,-0.24 -38.09,-0.32 -57.15,-0.25 c -2.04,-0.03 -1.98,1.97 -1.89,3.43 Z M 185.67,373 c 0.01,6.84 0.01,13.68 0,20.53 c -0.1,0.96 0.23,1.71 0.98,2.26 c 18.94,0.07 37.89,0.1 56.83,0.1 c 0.99,0.05 1.63,-0.39 1.91,-1.32 c 0.09,-7.37 0.12,-14.73 0.09,-22.1 c 0.04,-0.98 -0.36,-1.7 -1.18,-2.17 c -18.92,-0.03 -37.84,-0.06 -56.76,-0.06 c -1.78,-0.23 -1.89,1.46 -1.87,2.76 Z M 266.51,393 c -0.28,1.7 0.38,2.66 2.01,2.89 c 18.94,0 37.89,-0.03 56.83,-0.1 c 0.75,-0.55 1.08,-1.3 0.98,-2.26 c 0.03,-7.36 -0.01,-14.71 -0.12,-22.06 c -0.24,-0.88 -0.83,-1.29 -1.75,-1.23 c -18.92,0 -37.84,0.03 -56.76,0.06 c -0.82,0.47 -1.22,1.19 -1.18,2.17 c 0,6.84 0,13.68 -0.01,20.53 Z"/></g>
</svg>
